<?xml version="1.0" standalone="no"?>
<!DOCTYPE svg PUBLIC "-//W3C//DTD SVG 1.1//EN" "http://www.w3.org/Graphics/SVG/1.1/DTD/svg11.dtd" >
<svg xmlns="http://www.w3.org/2000/svg">
<metadata>Generated by IcoMoon</metadata>
<defs>
<font id="icomoon" horiz-adv-x="1024">
<font-face units-per-em="1024" ascent="896" descent="-128" />
<missing-glyph horiz-adv-x="1024" />
<glyph unicode="&#x20;" d="" />
<glyph unicode="&#x78;" glyph-name="x" horiz-adv-x="1001" d="M281 543q-27-1-53-1h-83q-18 0-36.5-6t-32.5-18.5-23-32-9-45.5v-76h912v41q0 16-0.5 30t-0.5 18q0 13-5 29t-17 29.5-31.5 22.5-49.5 9h-133v-97h-438v97zM955 310v-52q0-23 0.5-52t0.5-58-10.5-47.5-26-30-33-16-31.5-4.5q-14-1-29.5-0.5t-29.5 0.5h-32l-45 128h-439l-44-128h-63q-20 0-45 1-25 0-41 9.5t-25.5 23-13.5 29.5-4 30v167h911zM163 247q-12 0-21-8.5t-9-21.5 9-21.5 21-8.5q13 0 22 8.5t9 21.5-9 21.5-22 8.5zM316 123q-8-26-14-48-5-19-10.5-37t-7.5-25-3-15 1-14.5 9.5-10.5 21.5-4h365q23 0 34 12t2 38q-5 13-9.5 30.5t-9.5 34.5q-5 19-11 39h-368zM336 498v228q0 11 2.5 23t10 21.5 20.5 15.5 34 6h188q31 0 51.5-14.5t20.5-52.5v-227h-327z" />
<glyph unicode="&#xe600;" glyph-name="add-filled" d="M512 735q-91 0-173.5-35.5t-142.5-95.5-95.5-142.5-35.5-173.5 35.5-173.5 95.5-142.5 142.5-95.5 173.5-35.5 173.5 35.5 142.5 95.5 95.5 142.5 35.5 173.5-35.5 173.5-95.5 142.5-142.5 95.5-173.5 35.5zM731 235h-166v-166h-106v166h-166v106h166v166h106v-166h166v-106z" />
<glyph unicode="&#xe601;" glyph-name="application-filled" d="M512 735q-91 0-174-35.5t-142.5-95.5-95-142.5-35.5-173.5 35.5-173.5 95-142.5 142.5-95.5 174-35.5 173.5 35.5 142.5 95.5 95.5 142.5 35.5 173.5-35.5 173.5-95.5 142.5-142.5 95.5-173.5 35.5zM422 83q0-7-5.5-12.5t-12.5-5.5h-75q-7 0-12.5 5.5t-5.5 12.5v75q0 7 5.5 12.5t12.5 5.5h75q7 0 12.5-5.5t5.5-12.5v-75zM422 240q0-8-5.5-13.5t-12.5-5.5h-75q-7 0-12.5 5.5t-5.5 13.5v74q0 8 5.5 13.5t12.5 5.5h75q7 0 12.5-5.5t5.5-13.5v-74zM422 396q0-7-5.5-12.5t-12.5-5.5h-75q-7 0-12.5 5.5t-5.5 12.5v75q0 7 5.5 12.5t12.5 5.5h75q7 0 12.5-5.5t5.5-12.5v-75zM579 83q0-7-5.5-12.5t-13.5-5.5h-74q-8 0-13.5 5.5t-5.5 12.5v75q0 7 5.5 12.5t13.5 5.5h74q8 0 13.5-5.5t5.5-12.5v-75zM579 240q0-8-5.5-13.5t-13.5-5.5h-74q-8 0-13.5 5.5t-5.5 13.5v74q0 8 5.5 13.5t13.5 5.5h74q8 0 13.5-5.5t5.5-13.5v-74zM579 396q0-7-5.5-12.5t-13.5-5.5h-74q-8 0-13.5 5.5t-5.5 12.5v75q0 7 5.5 12.5t13.5 5.5h74q8 0 13.5-5.5t5.5-12.5v-75zM735 240q0-8-5.5-13.5t-12.5-5.5h-75q-7 0-12.5 5.5t-5.5 13.5v74q0 8 5.5 13.5t12.5 5.5h75q7 0 12.5-5.5t5.5-13.5v-74zM735 396q0-7-5.5-12.5t-12.5-5.5h-75q-7 0-12.5 5.5t-5.5 12.5v75q0 7 5.5 12.5t12.5 5.5h75q7 0 12.5-5.5t5.5-12.5v-75z" />
<glyph unicode="&#xe602;" glyph-name="dropdown" d="M806 525l-294-295-294 295-90-90 384-384 384 384z" />
<glyph unicode="&#xe603;" glyph-name="arrow-left" d="M359 288l383 384h-76l-384-384 384-383h76z" />
<glyph unicode="&#xe604;" glyph-name="arrow-right" d="M666 288l-384-383h77l383 383-383 384h-77z" />
<glyph unicode="&#xe605;" glyph-name="presold-filled" d="M636 300q-56 0-96-39.5t-40-96 40-96 96-39.5 95.5 39.5 39.5 96-39.5 96-95.5 39.5zM702 163h-85q-9 0-9 9v92q0 9 9 9t9-9v-84h76q8 0 8-8.5t-8-8.5zM512 735q-91 0-173.5-35.5t-142.5-95.5-95.5-142.5-35.5-173.5 35.5-173.5 95.5-142.5 142.5-95.5 173.5-35.5 173.5 35.5 142.5 95.5 95.5 142.5 35.5 173.5-35.5 173.5-95.5 142.5-142.5 95.5-173.5 35.5zM745 55.5q-45-45.5-109-45.5t-109 45.5-45 109 45 109 109 45.5 109-45.5 45-109-45-109zM820 323l-42-42q-6-6-12.5 0.5t-0.5 13.5l42 41q8 9 8.5 21t-8.5 21l-49 49q-21-17-47-17-32 0-54.5 22.5t-22.5 54.5q0 26 17 47l-49 48q-9 9-21.5 9.5t-20.5-8.5l-343-342q-9-9-9-21 0-13 10-22l48-49q21 17 47 17 32 0 54.5-22.5t22.5-54.5q0-26-17-47l49-49q9-9 21-9v0q12 0 21 9l41 42q7 6 13.5-0.5t0.5-12.5l-42-42q-14-14-34-14v0q-20 0-34 14l-55 55q-3 3-3 7t3 6q17 17 17 41t-17 41-41 17-41-17q-2-3-6-3v0q-4 0-7 3l-55 55q-14 14-14 35 0 20 14 34l342 342q14 14 34.5 14t34.5-15l55-54q3-3 3-7t-3-6q-17-17-17-41t17-41 41-17 41 17q2 3 6 3v0q4 0 7-3l55-55q14-14 14-34t-14-34z" />
<glyph unicode="&#xe606;" glyph-name="zuo" d="M512 703q113 0 208.5-55.5t151-151 55.5-208.5-55.5-208.5-151-151-208.5-55.5-208.5 55.5-151 151-55.5 208.5 55.5 208.5 151 151 208.5 55.5zM512 735q-91 0-173.5-35.5t-142.5-95.5-95.5-142.5-35.5-173.5 35.5-173.5 95.5-142.5 142.5-95.5 173.5-35.5 173.5 35.5 142.5 95.5 95.5 142.5 35.5 173.5-35.5 173.5-95.5 142.5-142.5 95.5-173.5 35.5v0zM545 532q16-44 20-65h134q29 2 43 4v-45q-40 3-90 5h-287v-21q11-209-54-346-19 10-41 16-6 3-10 3 42 54 55 134 6 38 6 93 2 41 0 161 22-2 197-4 0-1-2 2l-2 2q-6 18-20 49zM528 416q47-2 53-10-2-4-4-10-6-10-6-20v-165h94q24 0 34 2v-43h-41q-35 2-42 2h-45v-57h71q76-2 94 2v-41q-15 3-43 4h-238q-69 3-85-2v39q8-2 40-2h122v57h-46q-43-2-82-4v47q15-2 39-4h89v165q-2 16-4 40zM494 247q-15 31-43 65-10-22-35-65-4-8-6-10-14 12-40 16 56 59 71 151 47-12 49-16-2-4-6-8-7-9-9-13-2-2-4-8-4-12-4-16 39-43 63-69-24-15-36-27zM573 262q49 52 67 138 51-12 47-18l-6-6q-6-7-8-13-4-6-10-28 29-23 77-65l-39-31q-16 29-57 65-22-42-36-67-15 18-35 25z" />
<glyph unicode="&#xe607;" glyph-name="bus" d="M875 100h-40q-10 0-10 10t10 10h40q20 0 27.5 11.5t7.5 34.5v327q0 57-35 57h-694q-23 0-45.5-18.5t-22.5-38.5v-327q0-19 22-32.5t46-13.5h20q10 0 10-10t-10-10h-20q-33 0-60.5 19t-27.5 47v327q0 29 28 53t60 24h694q29 0 42-22t13-55v-327q0-66-55-66zM590 100h-164q-10 0-10 10t10 10h164q10 0 10-10t-10-10zM323 6q-37 0-63.5 26.5t-26.5 63.5 26.5 63.5 63.5 26.5 63.5-26.5 26.5-63.5-26.5-63.5-63.5-26.5zM323 165q-29 0-49-20.5t-20-49 20-48.5 49-20 49 20 20 48.5-20 49-49 20.5zM720 6q-37 0-63.5 26.5t-26.5 63.5 26.5 63.5 63.5 26.5 63.5-26.5 26.5-63.5-26.5-63.5-63.5-26.5zM720 165q-29 0-49-20.5t-20-49 20-48.5 49-20 49 20 20 48.5-20 49-49 20.5zM359 375q0-21-15-36t-36-15h-82q-22 0-37 15t-15 36v82q0 21 15 36t37 15h82q21 0 36-15t15-36v-82zM338 457q0 13-9 22t-22 9h-81q-13 0-22-9t-9-22v-81q0-13 9-22t22-9h81q13 0 22 9t9 22v81zM604 375q0-21-15-36t-36-15h-82q-21 0-36 15t-15 36v82q0 21 15 36t36 15h82q21 0 36-15t15-36v-82zM583 457q0 13-9 22t-21 9h-82q-13 0-22-9t-9-22v-81q0-13 9-22t22-9h82q12 0 21 9t9 22v81zM849 375q0-21-15-36t-36-15h-82q-21 0-36 15t-15 36v82q0 21 15 36t36 15h82q21 0 36-15t15-36v-82zM829 457q0 13-9 22t-22 9h-82q-13 0-21.5-9t-8.5-22v-81q0-13 8.5-22t21.5-9h82q13 0 22 9t9 22v81z" />
<glyph unicode="&#xe608;" glyph-name="card-filled" d="M512 735q-91 0-173.5-35.5t-142.5-95.5-95.5-142.5-35.5-173.5 35.5-173.5 95.5-142.5 142.5-95.5 173.5-35.5 173.5 35.5 142.5 95.5 95.5 142.5 35.5 173.5-35.5 173.5-95.5 142.5-142.5 95.5-173.5 35.5zM805 322l-327-327q-13-14-32.5-14t-33.5 14l-193 193q-14 14-14 33.5t14 32.5l327 327q13 14 32.5 14t33.5-14l193-193q14-14 14-33.5t-14-32.5zM599 568q-9 8-20.5 8t-19.5-8l-327-327q-8-8-8-19.5t8-20.5l193-193q9-8 20.5-8t19.5 8l327 327q8 8 8 19.5t-8 20.5zM356 185l-14 14 36 35 13-13zM423 118l-14 14 36 35 13-13zM413 243l-13 14 211 210 13-13zM481 176l-14 13 211 211 13-13z" />
<glyph unicode="&#xe609;" glyph-name="coin-filled" d="M512 735q-91 0-173.5-35.5t-142.5-95.5-95.5-142.5-35.5-173.5 35.5-173.5 95.5-142.5 142.5-95.5 173.5-35.5 173.5 35.5 142.5 95.5 95.5 142.5 35.5 173.5-35.5 173.5-95.5 142.5-142.5 95.5-173.5 35.5zM691 351q7 0 12.5-5.5t5.5-12.5v-45q0-8-5.5-13.5t-12.5-5.5h-116v-52h116q7 0 12.5-5.5t5.5-12.5v-45q0-8-5.5-13.5t-12.5-5.5h-116v-93q0-7-5.5-12.5t-12.5-5.5h-90q-7 0-12.5 5.5t-5.5 12.5v93h-116q-7 0-12.5 5.5t-5.5 13.5v45q0 7 5.5 12.5t12.5 5.5h116v52h-116q-7 0-12.5 5.5t-5.5 13.5v45q0 7 5.5 12.5t12.5 5.5h89l-102 103q-5 5-5 12.5t5 13.5l45 45q5 5 13 5t13-5l121-121 121 121q5 5 13 5t13-5l45-45q5-6 5-13.5t-5-12.5l-102-103h89zM512 377l-134 134-45-44 134-134h-134v-45h134v-89h-134v-45h134v-112h90v112h134v45h-134v89h134v45h-134l134 134-45 44z" />
<glyph unicode="&#xe60a;" glyph-name="coupon-filled" d="M512 735q-91 0-173.5-35.5t-142.5-95.5-95.5-142.5-35.5-173.5 35.5-173.5 95.5-142.5 142.5-95.5 173.5-35.5 173.5 35.5 142.5 95.5 95.5 142.5 35.5 173.5-35.5 173.5-95.5 142.5-142.5 95.5-173.5 35.5zM702 200q8 0 13.5-6t5.5-14-5.5-13.5-13.5-5.5h-74v-36h74q8 0 13.5-5.5t5.5-13.5-5.5-14-13.5-6h-74v-45q0-8-6-13.5t-14-5.5-13.5 5.5-5.5 13.5v45h-74q-8 0-13.5 6t-5.5 14 5.5 13.5 13.5 5.5h74v36h-74q-8 0-13.5 5.5t-5.5 13.5 5.5 14 13.5 6h64l-75 75q-5 5-5 13t5.5 13.5 13 5.5 12.5-6l75-74h8l77 77q5 5 13 5t13-5.5 5-13-5-13.5l-77-77h63zM820 323l-42-42q-6-6-12.5 0.5t-0.5 13.5l42 41q8 9 8.5 21t-8.5 21l-49 49q-21-17-47-17-32 0-54.5 22.5t-22.5 54.5q0 26 17 47l-49 48q-9 9-21.5 9.5t-20.5-8.5l-343-342q-9-9-9-21 0-13 10-22l48-49q21 17 47 17 32 0 54.5-22.5t22.5-54.5q0-26-17-47l49-49q9-8 21-8v0q12 0 21 9l41 41q7 6 13.5-0.5t0.5-12.5l-42-42q-14-15-34-15v0q-20 0-34 15l-55 55q-3 3-3 7t3 6q17 17 17 41t-17 41-41 17-41-17q-3-3-6-3v0q-4 0-7 3l-55 55q-14 14-14 35 0 20 14 34l342 342q14 14 34.5 14t34.5-15l55-54q3-3 3-7t-3-6q-17-17-17-41t17-41 41-17 41 17q2 3 6 3v0q4 0 7-3l55-55q14-14 14-34t-14-34z" />
<glyph unicode="&#xe60b;" glyph-name="chair" d="M817 430h-61v203q0 38-31.5 70t-70.5 32h-284q-36 0-69-31.5t-33-70.5v-203h-61q-38 0-59.5-21.5t-21.5-59.5v-244q0-14 13-27t28-13h264v-102h-122v-122h406v122h-122v102h264q15 0 28 13t13 27v244q0 38-21 59.5t-60 21.5zM269 105h-100q-1 1-2 3v241q0 21 9.5 31t30.5 10h62v-285zM675-78v-40h-326v40h82q2 0 5 1h150q4-1 7-1h82zM558-57h-92q5 9 5 20v102h82v-102q0-11 5-20zM715 252v-147h-406v528q0 22 20.5 41.5t40.5 19.5h284q21 0 41-20t20-41v-381zM857 108q-1-2-2-3h-99v285h61q22 0 31-9.5t9-31.5v-241zM705 262h-386q-4 0-7-3t-3-7 3-7 7-3h386q4 0 7 3t3 7-3 7-7 3z" />
<glyph unicode="&#xe60c;" glyph-name="cinema-title" d="M319-102l18-11q-22-22-35-29-7 7-16 9 24 18 33 31zM366-19q2-5 6-14h36q12 1 15 1v-16q-6 1-33 1h-69q-23 0-31-1v16q12-1 31-1h30q-1 3-5 12zM308 49q11-2 25-2h47q14 0 29 1-2-9-2-17v-32q0-7 1-18h-10q-5 0-9 1h-64q-8-1-11-1h-6q1 8 2 17v32q-1 6-2 19zM309-57h69q16 0 30 1-1-12-1-23.5t1-20.5h-18q-10 0-21 1v-37q4-19-30-21-2 10-10 21 22-4 22 4v34q-28-1-42-2 1 9 2 21l-2 22zM327 33v-13h61v13h-61zM327 8v-11h61v11h-61zM328-71v-14h60v14h-60zM395-104q3-4 16-22 1-2 2-2l-17-7q-9 16-17 23zM482-71q23-15 20-18-1-1-2-1-6-2-8-5-31-41-76-64-3 3-5 6-6 5-14 11 58 14 85 71zM462 53q24-10 22-14h-2q-5-1-11-11-14-25-38-50l-6 2q-7 5-14 8 31 21 49 65zM473-9q21-12 21-18 0-2-3-3-6-2-9-7-25-34-49-51-8 7-20 14 39 17 60 65zM531 42q10-3 25-2h22q16-1 26 2-6-15-12-33-6-19-13-40 20-28 21-50-2-29-37-33 1 15-10 24 28-6 27 15-1 22-20 42 7 20 20 60h-28v-158q0-13 1-24h-21v12q0 5 1 11v153q0 13-2 21zM603-55q4 0 18-1h83q20 1 24 1v-17h-13q-9 0-22 1h-7v-55q-1-9 13-9 15-1 18 28 11-11 20-13-6-33-28-32h-17q-26-1-23 18v63h-20q-2-35-12-53-13-16-47-29v1q-10 12-18 17 60 2 60 64h-4q-1 0-8-1h-17v17zM671 54l8-28h35q10 0 19 1v-19q0-5 1-19h-23v10q0 5 1 10h-91q0-11 1-19h-20v37q10-1 21-1h34q-5 13-12 25zM617-17q8-2 35-1h29q24-1 30 1v-17q-5 1-30 1h-29q-27 0-35-1v17zM512 735q-119 0-203-84t-84-203 84-203 203-84q65 0 124 28l-25 125h-121q-17 0-28 12t-14 27l-25 130q-4 17 6 32.5t27.5 19 33-6.5 18.5-27l20-104h111q12 0 21.5-8t10.5-20l27-139q47 40 74 97t27 121q0 119-84 203t-203 84zM479 272h79q6 0 9.5-3.5t3.5-9-3.5-9.5-9.5-4h-79q-33 0-58 20.5t-32 51.5q-1 3-2.5 11.5t-3.5 19.5-4.5 23.5l-9.5 47.5t-3.5 16.5l-1.5 6.5q-1 6 2 10t9 6h2q11 0 13-11l1-4q21-109 23-120 5-23 23-37.5t42-14.5zM460.5 554q-19.5 0-33 13.5t-13.5 32.5 13.5 32.5 33 13.5 33-13.5 13.5-32.5-13.5-32.5-33-13.5z" />
<glyph unicode="&#xe60d;" glyph-name="cinema" d="M512 735q-91 0-173.5-35.5t-142.5-95.5-95.5-142.5-35.5-173.5 35.5-173.5 95.5-142.5 142.5-95.5 173.5-35.5q102 0 193 44l-39 194h-189q-25 0-42.5 18.5t-22.5 42.5l-39 202q-6 27 9.5 51t43 29.5 51.5-10 29-42.5l31-162h173q19 0 33.5-12.5t16.5-31.5l41-216q74 63 116 151.5t42 188.5q0 91-35.5 173.5t-95.5 142.5-142.5 95.5-173.5 35.5zM460 14h124q9 0 15-6t6-14.5-6-14.5-15-6h-124q-51 0-90 31.5t-50 81.5q-4 20-38 194-2 9 3 16t13 8q2 1 4 1 17 0 20-17l1-6q33-170 37-187 8-36 36-58.5t64-22.5v0zM431.5 453q-29.5 0-50.5 21t-21 50.5 21 50.5 50.5 21 51-21 21.5-50.5-21.5-50.5-51-21z" />
<glyph unicode="&#xe60e;" glyph-name="clean-filled" d="M226 248q1-22 33-68l52 32 13-13-54-34q23-31 58-66 32-32 61-54l34 55 13-13-33-53q45-32 68-32h1l33 103-176 176zM391 154l-58-58-13 13 58 58zM512 735q-91 0-173.5-35.5t-142.5-95.5-95.5-142.5-35.5-173.5 35.5-173.5 95.5-142.5 142.5-95.5 173.5-35.5 173.5 35.5 142.5 95.5 95.5 142.5 35.5 173.5-35.5 173.5-95.5 142.5-142.5 95.5-173.5 35.5zM760 477l-156-156q30-37 41-71 8-22 7-39-1-22-15-35-10-10-27-13l-64-65q-6-5-14-5-5 0-10 3l-33-100q-3-11-16-12h-2q-18 0-47 15-48 26-109 87-65 65-92 117-15 28-15 44-1 14 12 18l100 33q-3 5-3 11 0 7 5 13l65 64q3 17 13 27 14 15 39 15t58-16q24-12 48-32l156 156q12 12 29 12t28-12l2-1q12-12 12-29t-12-29zM745 523q-6 6-15.5 6t-15.5-6l-168-168q-62 54-107 54-17 0-26-9-8-7-9-22l-69-70 197-197 70 69q15 1 22 9 17 17 4 55t-49 78l168 168q6 6 6 15.5t-6 15.5z" />
<glyph unicode="&#xe60f;" glyph-name="concact-filled" d="M512 735q-91 0-173.5-35.5t-142.5-95-95.5-142.5-35.5-174 35.5-173.5 95.5-142.5 142.5-95.5 173.5-35.5 173.5 35.5 142.5 95.5 95.5 142.5 35.5 173.5-35.5 174-95.5 142.5-142.5 95-173.5 35.5zM713 99l-2.5-3t-5.5-6-9-8.5-12.5-10-15.5-10.5-19-11q-15-5-31-5-18 0-40 6-70 20-140 83-88 80-129 175-24 57-20 103 4 38 31 60 6 6 17.5 16t15.5 13q20 18 45 18 28 0 49-22 9-10 22-24 19-22 17.5-49.5t-23.5-46.5q-25-23-31-28-11-9-8-24 3-23 20-49 32-50 76-76 9-5 27-11 4-2 7-2 8 0 15 7 9 8 31 28 21 18 46 18 29 0 51-23 12-13 21-24 19-22 17.5-48t-22.5-46zM683 204q-16 18-37 18-18 0-34-14v0l-3-3q-19-16-27-25-12-11-28-11-6 0-13 2-20 7-31 13v0q-47 29-81 82-19 29-24 56v0q-4 26 15 41 8 6 24 21 5 4 7 6 16 15 17 35t-13 36q-13 14-21 23-16 17-36 17-18 0-33-14-4-3-13-11-13-12-20-18-21-18-24-47-4-42 18-94 40-92 125-169 66-60 132-79 20-5 35-5 12 0 23 3 34 17 57 43l2 2q16 15 17 34t-13 35q-9 10-21 23z" />
<glyph unicode="&#xe610;" glyph-name="tong" d="M512 703q113 0 208.5-55.5t151-151 55.5-208.5-55.5-208.5-151-151-208.5-55.5-208.5 55.5-151 151-55.5 208.5 55.5 208.5 151 151 208.5 55.5zM512 735q-91 0-173.5-35.5t-142.5-95.5-95.5-142.5-35.5-173.5 35.5-173.5 95.5-142.5 142.5-95.5 173.5-35.5 173.5 35.5 142.5 95.5 95.5 142.5 35.5 173.5-35.5 173.5-95.5 142.5-142.5 95.5-173.5 35.5v0zM380 351q-6-49-6-65v-128q48-35 140-45 122-2 230 12-22-24-24-51-47-2-129 0-83 2-120 7-26 6-77 28-33 12-41 12-16-2-49-43l-36 37q53 35 67 43v152q-20-2-35-2h-22v45q20-2 48.5-2t51.5 2q2 0 2-2zM347 518q40-74 51-96l-49-20q-18 55-43 94zM429 510q26-4 65-4h162q33-2 62 2-62-67-129-106h74q26-2 40 2-4-10-2-35v-69q0-156-4-152-22-15-65-13-2 23-14 49 32-8 43 2v35h-78v-79h-38q2 6 2 54v25h-74v-33q-2-32 2-46h-42v10q0 14 2 32v183q-2 18-2 29v6l4-2h103q-18 20-40 35l32 26q19-16 37-35 32 21 53 45h-128q-51 0-65-2v41zM471 369v-42h76v42h-76zM471 296v-45h76v45h-76zM583 369v-42h78v42h-78zM583 296v-45h80v45h-80z" />
<glyph unicode="&#xe611;" glyph-name="feedback-filled" d="M646 444h-268q-41 0-71-30t-30-70v-112q0-37 26.5-63t63.5-26h161q41-54 126-54 18 0 39 3-2 0-6 1.5t-14.5 5.5-19 9.5-18 14.5-14.5 20h14q41 0 68 32 32 27 32 68v112q0 37-26 63t-63 26zM378 266q-9 0-15.5 6.5t-6.5 15.5 6.5 15.5 15.5 6.5 15.5-6.5 6.5-15.5-6.5-15.5-15.5-6.5zM512 266q-9 0-15.5 6.5t-6.5 15.5 6.5 15.5 15.5 6.5 15.5-6.5 6.5-15.5-6.5-15.5-15.5-6.5zM646 266q-9 0-15.5 6.5t-6.5 15.5 6.5 15.5 15.5 6.5 15.5-6.5 6.5-15.5-6.5-15.5-15.5-6.5zM512 735q-91 0-173.5-35.5t-142.5-95.5-95.5-142.5-35.5-173.5 35.5-173.5 95.5-142.5 142.5-95.5 173.5-35.5 173.5 35.5 142.5 95.5 95.5 142.5 35.5 173.5-35.5 173.5-95.5 142.5-142.5 95.5-173.5 35.5zM754 243q0-49-38-81-23-27-57-35 18-12 38-17 15-4 14.5-19.5t-16.5-17.5q-21-3-41-3-53 0-92 20-25 14-43 34h-152q-45 0-76.5 31.5t-31.5 76.5v112q0 24 9 46 10 21 26.5 37.5t37.5 25.5q22 10 46 10h268q45 0 76.5-31.5t31.5-76.5v-112z" />
<glyph unicode="&#xe612;" glyph-name="active-title" d="M512 735q-119 0-203-84.5t-84-203 84-203 203-84.5 203 84.5 84 203-84 203-203 84.5zM564 536q0 11 8 19.5t19.5 8.5 19.5-8.5 8-19.5v-62q0-11-8-19.5t-19.5-8.5-19.5 8.5-8 19.5v62zM415 536q0 11 8 19.5t19.5 8.5 19.5-8.5 8-19.5v-62q0-11-8-19.5t-19.5-8.5-19.5 8.5-8 19.5v62zM712 389q-22-63-77.5-102.5t-122.5-39.5-122.5 39.5-77.5 102.5q-5 14 8.5 18.5t18.5-8.5q19-55 67-89t106-34 106 34 67 89q5 13 18.5 8.5t8.5-18.5zM294-9q21-9 40-20l-11-20q-13 10-39 22zM314-57l20-10q-5-19-8-31-5-23-9-38-2-3-3-12-1-7-1-8-2-2-22 16 14 31 23 83v0zM309 48q12-7 38-25l-13-17q-20 15-38 25l13 17zM464 51q9-14 11-22-1-1-4-1-3 1-12 1-2-1-14-3-14-1-21-2v-35h38q26 0 30 1l2 1v-22h-2q-14 1-30 2h-38v-31h23q18 0 25 2-2-8-2-28v-33q1-23 1-30 1-4 1-6h-22q1 3 2 18h-74q0-15 2-19h-23v4q1 7 2 27v38q-1 8-1 16-1 8-2 13 6-2 27-2h22v30h-32q-16 0-28-2h-4v23l2-1q5-1 29-1h33v32q-20-2-46-6-3 5-10 16-2 2-2 3 61-1 117 17zM451-78h-73v-43h73v43zM653 55q26-3 30-6 0-2-2-5-3-3-3-6-2-11-3-30v-7h46q4 1 6 1l2-1q-10-144-15-139-7-10-39-14 1 11-8 23 24-4 30 5 5 6 10 107h-33q-3-114-69-142-5 8-23 17 71 15 72 125h-11q-11 0-19-2h-1v-19h-3q-11 2-28 2h-6q-17-49-31-69l47 13q-8 12-12 23l16 7q13-22 23-48l-18-10q-1 5-4 10v2q-39-11-66-20l-6-2-10 20 2 1q17 6 38 72h-10q-15 0-29-2h-2v22l2-1q6-1 29-1h36q19 0 22 1 2 1 3 1v19l3-1q8-1 24-1h12q0 24-1 35 0 13-1 20zM534 32h2q6-1 31-1h18q25 0 31 1h2v-21h-2q-11 2-30 2h-20q-15-1-29-2h-3v21z" />
<glyph unicode="&#xe613;" glyph-name="active" d="M512 735q-91 0-173.5-35.5t-142.5-95.5-95.5-142.5-35.5-173.5 35.5-173.5 95.5-142.5 142.5-95.5 173.5-35.5 173.5 35.5 142.5 95.5 95.5 142.5 35.5 173.5-35.5 173.5-95.5 142.5-142.5 95.5-173.5 35.5zM593 425q0 18 12.5 30.5t30.5 12.5 30.5-12.5 12.5-30.5v-96q0-18-12.5-30.5t-30.5-12.5-30.5 12.5-12.5 30.5v96zM361 425q0 18 12.5 30.5t30 12.5 30.5-12.5 13-30.5v-96q0-18-13-30.5t-30.5-12.5-30 12.5-12.5 30.5v96zM824 198q-35-99-121-160t-191-61-191 61-121 160q-3 8 1 16.5t13 11.5 17-1 12-13q30-85 104-138t165-53 165 53 104 138q4 9 12 13t17 1 13-11.5 1-16.5z" />
<glyph unicode="&#xe614;" glyph-name="gift" d="M850 495h-98q22 15 36 37 17 27 19 58.5t-12 57.5q-13 27-40 43t-58 16q-59 0-90-50-39-61-79-162h-8q-40 101-78 162-31 50-90 50-32 0-58.5-16t-40.5-43q-13-26-11-57.5t18-58.5q14-22 36-37h-122q-5 0-8.5-4t-3.5-9v-175q0-5 3.5-9t8.5-4h13v-412q0-6 3.5-9.5t8.5-3.5h626q5 0 8.5 3.5t3.5 9.5v412h13q5 0 8.5 4t3.5 9v175q0 5-3.5 9t-8.5 4zM587 320h-125v150h125v-150zM628 644q23 38 69 38 24 0 45-12t31-32.5 8.5-45.5-14.5-47q-29-47-90-47h-121q39 93 72 146zM282 545q-14 22-15.5 47t9 45.5 31 32.5 45.5 12q45 0 69-38 33-53 71-146h-121q-60 0-89 47zM187 470h250v-150h-250v150zM212 294h225v-400h-225v400zM462-106v400h125v-400h-125zM812-106h-200v400h200v-400zM837 320h-225v150h225v-150z" />
<glyph unicode="&#xe615;" glyph-name="glasses" d="M834 82h-113q-31 0-60 20t-40 49l-41 107q-36 19-65 19-30 0-71-19l-41-107q-11-29-40-49t-60-20h-113q-31 0-58 21.5t-34 51.5l-28 120q-8 32 10 55 15 18 39 22l2 2 252 139q3 2 7 1 12-3 22-13 17-20 10-57-4-21-12-31-10-12-24-12t-29 13h-1q-8 0-23-10l-40-31h99q3 2 6 2h253q4 0 7-2h99l-41 31q-14 10-23 10v0q-15-13-30-13v0q-14 0-23 12-9 10-13 31-7 37 11 57 9 10 21 13 4 1 8-1l251-139q2-1 3-3 21-5 33-21 18-23 11-55l-29-120q-7-30-34-51.5t-58-21.5zM594 275q4-2 5-5l43-111q8-22 31.5-38.5t47.5-16.5h113q23 0 44 16.5t26 39.5l29 120q5 22-6.5 36.5t-33.5 14.5h-252q-3 0-6 2h-241q-2-2-6-2h-257q-22 0-33.5-14.5t-6.5-36.5l29-120q5-23 26-39.5t44-16.5h113q24 0 47.5 16.5t31.5 38.5l43 111q2 4 5 5 44 24 85 24 39 0 79-24v0zM781 355h78l-209 116q-18-10-11-43 5-24 14-24 7 0 16 7 6 5 14 5 16 0 36-14h1zM170 355h78l62 47q20 14 36 14 9 0 14-5 9-7 16-7 10 0 14 24 7 33-11 43z" />
<glyph unicode="&#xe616;" glyph-name="dislike" d="M194 156h186q-21-62-22-128 0-34 6-68 5-30 15-48 25-46 76-56 28-5 55.5 4.5t46.5 30.5q17 20 24 46 2 11 2.5 30.5t1.5 24.5q6 60 41 108 31 42 76 67 23 12 48 19 13 3 25 5 2 0 6 1t7 1.5 4 0.5h123.5t6.5 0.5 7 1l6 1.5t6.5 2.5 5 4l5.5 5.5q7 10 7 28v439q0 21-6 30-12 16-36 16h-604q-50 0-94.5-24t-71.5-65q-15-23-26-69-48-210-52-232-13-74 11-120 30-56 114-56zM884 270q-25-1-75-1 0 17-0.5 126.5t-0.5 167.5 1 83h75v-376zM187 516q26 93 96 121 35 14 67 10l384-1v-386l-3.5-1t-7.5-2l-4-1q-14-4-27-10-24-10-47-25-45-29-77-73-35-47-50-103-7-27-9-63 0-1-0.5-7t-0.5-8-0.5-7-2-7.5-3-6-4-6-6.5-5.5q-11-7-24-5t-21 12q-7 8-11 35-9 63 4 121 8 31 21 60 1 2 3.5 8.5t3.5 8.5 3 7.5 2 9-0.5 8-2.5 9.5q-10 22-43 22-228 0-233 1-44 4-51 43-4 23 4 61 24 121 40 180v0z" />
<glyph unicode="&#xe617;" glyph-name="like" d="M830 420h-186q21 62 22 128 0 34-6 68-5 30-15 49-25 46-75 55-29 6-56.5-4t-46.5-31q-17-20-24-46-2-10-2.5-29.5t-1.5-25.5q-6-59-41-108-31-42-76-67-23-12-48-19-13-3-25-5-2 0-6-1t-7-1.5-4-0.5h-130t-7-1-6-2-6-2.5-5-3.5-5-5q-8-10-8-29v-439q0-20 7-30 11-16 36-16h604q49 0 93.5 24t71.5 65q16 24 26 69 48 210 52 232 13 74-11 120-30 56-114 56zM140 307h75q0-17 0.5-126.5t0.5-167.5-1-83h-75v377zM837 60q-26-92-96-121-35-14-67-9h-384v386l3.5 1t7.5 2l4 1q14 5 27 10 25 11 47 25 45 30 77 73 35 47 50 103 7 27 9 63 0 1 0.5 7.5t0.5 8 0.5 6.5 2 7.5 3 6 4.5 6.5 6 5q11 7 24 5t21-12q7-7 11-35 9-63-4-121-7-31-21-60 0-2-3-8t-4-8.5-3-8-2-8.5 0.5-8 2.5-9q10-23 43-23 228 0 233-1 44-4 51-43 4-22-4-61-24-121-40-180v0 0z" />
<glyph unicode="&#xe618;" glyph-name="list" d="M65-10h894v99h-894v-99zM65 238h894v100h-894v-100zM65 586v-99h894v99h-894z" />
<glyph unicode="&#xe619;" glyph-name="location" d="M512-159l-14 14q-9 8-22.5 21t-47 49.5-64 73-66.5 88.5-62 101-44 105-18 104q0 142 98 240t240 98 240-98 98-240q0-48-18-104t-44-105-62-101-66.5-88.5-64-73-47-49.5-22.5-21zM512 693q-126 0-210.5-84.5t-84.5-211.5q0-54 25.5-120t59.5-120 80-112 75-88.5 55-57.5q26 27 55 57.5t75 88.5 80 112 59.5 120 25.5 120q0 127-84.5 211.5t-210.5 84.5zM512 199q-72 0-125.5 59t-53.5 137q0 76 52 128t127 52 127-52 52-128q0-78-53.5-137t-125.5-59zM512 553q-67 0-112.5-45.5t-45.5-112.5q0-70 47.5-122.5t110.5-52.5 110.5 52.5 47.5 122.5q0 67-45.5 112.5t-112.5 45.5z" />
<glyph unicode="&#xe61a;" glyph-name="film-title" d="M512 735q-119 0-203-84t-84-203 84-203 203-84 203 84 84 203-84 203-203 84zM358 420q-26 10-37 38-11 27 0 56 8 24 27 38.5t41 14.5q11 0 20-4 27-9 38-37t0-57q-8-23-27-37.5t-41-14.5q-11 0-21 3zM540 295q-7-20-25-31.5t-41-11.5q-15 0-28 5-30 10-44 36t-5 53q7 19 25 30.5t41 11.5q14 0 28-5 30-10 44-36t5-52zM549 443q-2-14-12.5-23.5t-24.5-9.5q-3 0-5 1-16 2-25.5 14.5t-7 28 15 25 28 7 25-15 6.5-27.5zM533 513q-29 10-44 36-14 26-5 53 7 19 25 30.5t41 11.5q14 0 28-4 30-11 44-37t5-52q-7-20-25-31.5t-41-11.5q-14 0-28 5zM703 382q-8-24-27-38t-41-14v0q-11 0-20 3-27 10-38 37-11 28 0 57 8 24 27 38t41 14q11 0 21-3 26-10 37-37 11-28 0-57zM319-102l18-11q-22-22-35-29-7 7-16 9 24 18 33 31zM366-19q2-4 6-14h36q12 1 15 1v-16q-6 1-33 1h-69q-23 0-31-1v16q12-1 31-1h30q0 2-5 12zM308 49q11-2 25-2h47q14 0 29 1-2-9-2-17v-32q0-6 1-18h-10q-5 0-9 1h-64q-8-1-11-1h-6q1 8 2 17v32q-1 10-2 19zM309-57h69q16 0 30 1-1-13-1-24t1-20h-18q-10 0-21 1v-37q4-19-30-21-2 10-10 21 22-4 22 4v34q-28-1-42-2 1 9 2 21-1 12-2 22v0zM327 33v-13h61v13h-61zM327 8v-11h61v11h-61zM328-71v-14h60v14h-60zM395-104q2-2 7.5-9.5t8.5-12.5q1-2 2-2l-17-7q-9 16-17 23zM482-71q21-15 20-18-1-1-2-1-6-2-8-5-31-41-76-64-2 2-5 6-6 5-14 11 58 14 85 71zM462 53q24-10 22-14h-2q-5-1-11-11-14-25-38-50l-6 2q-7 5-14 8 31 21 49 65zM473-9q21-12 21-18 0-2-3-3-6-3-9-7-25-34-49-51-8 7-20 14 39 17 60 65zM646 56q23 0 24-3 0-2-1-3-3-5-3-11v-46h24q20 0 33 2v-20q-9 1-15 1-5 1-18 1h-106v-37h72q15 0 29 2 0-1-1-5v-67q0-4-1-7 0-13 2-21h-22v5q2 10 2 23v53h-82q-8-49-36-81-11 10-23 11 41 31 41 96v55q0 35-2 48h5q22 0 22-3t-1-5q-5-7-5-19v-32h64v34q-1 16-2 26v3z" />
<glyph unicode="&#xe61b;" glyph-name="film" d="M512 735q-91 0-173.5-35.5t-142.5-95.5-95.5-142.5-35.5-173.5 35.5-173.5 95.5-142.5 142.5-95.5 173.5-35.5 173.5 35.5 142.5 95.5 95.5 142.5 35.5 173.5-35.5 173.5-95.5 142.5-142.5 95.5-173.5 35.5zM273 245q-41 15-59 58-17 43 0 88 13 37 42.5 59.5t63.5 22.5q17 0 32-6 41-15 59-58 17-43 0-88-13-37-42.5-59.5t-63.5-22.5q-17 0-32 6zM555 49q-11-31-38.5-49t-63.5-18q-23 0-44 8-46 16-68.5 56.5t-7.5 81.5q11 31 38.5 49t63.5 18q23 0 44-8 46-16 68.5-56.5t7.5-81.5zM570 280q-3-22-19.5-36.5t-38.5-14.5q-4 0-8 1-25 3-39.5 22.5t-10.5 43.5q3 24 22.5 39t44 11.5 39-23 10.5-43.5zM545 389q-46 16-68 56-23 41-8 82 11 31 38.5 49t63.5 18q23 0 44-8 46-16 68.5-56.5t7.5-81.5q-11-31-38.5-49t-63.5-18q-23 0-44 8zM810 185q-13-37-42.5-59.5t-63.5-22.5v0q-17 0-32 6-41 14-59 58-17 43 0 88 13 37 42.5 59.5t63.5 22.5q17 0 32-6 41-15 59-58 17-43 0-88z" />
<glyph unicode="&#xe61c;" glyph-name="notice-filled" d="M408 358h-21v-182q0-2-1-4h22q18 0 41-7.5t37-18.5l142-110v479l-143-127q-14-12-36.5-21t-40.5-9zM512 735q-91 0-173.5-35.5t-142.5-95.5-95.5-142.5-35.5-173.5 35.5-173.5 95.5-142.5 142.5-95.5 173.5-35.5 173.5 35.5 142.5 95.5 95.5 142.5 35.5 173.5-35.5 173.5-95.5 142.5-142.5 95.5-173.5 35.5zM646 35q0-21-14-21-7 0-15 6l-143 111q-12 9-31.5 16t-34.5 7h-105q-15 0-25.5 11t-10.5 26v149q0 16 10.5 27t25.5 11h105q15 0 34 7t31 17l145 129q9 8 16 8 12 0 12-20v-484zM369 355v3h-66q-7 0-12.5-5t-5.5-13v-149q0-8 5.5-13.5t12.5-5.5h67q-1 2-1 4v179z" />
<glyph unicode="&#xe61d;" glyph-name="order-add-filled" d="M646 245h-38v-75h-74v-37h74v-75h38v75h74v37h-74v75zM512 735q-91 0-173.5-35.5t-142.5-95.5-95.5-142.5-35.5-173.5 35.5-173.5 95.5-142.5 142.5-95.5 173.5-35.5 173.5 35.5 142.5 95.5 95.5 142.5 35.5 173.5-35.5 173.5-95.5 142.5-142.5 95.5-173.5 35.5zM460 50h-168v465h408v-195h-17v177h-373v-429h150v-18zM437 394v19h187v-19h-187zM474 283v-19h-37v19h37zM371 264v19h38v-19h-38zM409 153v-19h-38v19h38zM371 394v20h38v-20h-38zM626.5-4q-64.5 0-110 45.5t-45.5 110 45.5 110 110 45.5 110-45.5 45.5-110-45.5-110-110-45.5z" />
<glyph unicode="&#xe61e;" glyph-name="parking" d="M328-159q-36 0-62 25.5t-26 62.5v718q0 37 26 62.5t62 25.5h197q3 0 6-1 124-9 210-101t86-217q0-87-43-160t-116.5-116-159.5-43h-93v-168q0-37-25.5-62.5t-61.5-25.5zM328 706q-25 0-42-17t-17-42v-718q0-25 17-42t41.5-17 42 17 17.5 42v182q0 6 4 10.5t10 4.5h108q119 0 204 85t85 205q0 115-79.5 199t-194.5 90q-2 0-4 1h-192zM507 241h-106q-6 0-10 4t-4 10v322q0 6 4 10t10 4h110q72-2 121.5-53t49.5-122q0-72-50-123t-122-52h-3zM415 270h92q61 0 104 43t43 103-43 103-103 43q-2 0-4 1h-89v-293z" />
<glyph unicode="&#xe61f;" glyph-name="user-filled" d="M539.5 274q91.5 0 157 66.5t65.5 160.5-65.5 161-157 67-156.5-67-65-161 65-160.5 156.5-66.5zM512 160q-47 0-104-9t-118-27.5-111-44.5-82-64.5-32-82.5v-85h894v85q0 44-32 82.5t-82 64.5-111 44.5-118 27.5-104 9z" />
<glyph unicode="&#xe620;" glyph-name="phone" d="M295 688q34 0 60-28 15-16 39-44 24-26 22-58.5t-28-56.5l-13-11q-30-27-45-39-42-34-33-89t46-112q67-102 160-157 20-12 61-26 14-5 29-5 33 0 60 25 17 17 53 48l5 4q27 23 57 23 35 0 62-29 23-25 39-43 23-27 21.5-58t-27.5-55l-6-6q-41-47-103-76-19-7-41-7-27 0-63 10-123 35-247 146-160 143-234 314-41 97-34 171 5 51 41 81 13 11 38 34 17 15 25 22 26 22 56 22zM295 735q-48 0-87-34-7-6-28.5-25t-33.5-29q-52-43-58-113-9-87 38-194 77-181 245-331 133-119 266-156 43-12 76-12 32 0 59 10 19 9 37 20t30.5 20 23.5 18.5 17 16 10.5 11.5 4.5 6q40 37 42.5 87t-32.5 91q-17 19-40 44-42 45-97 45-48 0-88-35-43-37-60-54-13-12-27-12-7 0-14 3-36 12-52 22-83 49-144 142-32 49-39 94-5 28 15 43 14 11 60 53 41 37 44 89t-33 93q-25 28-41 45-40 42-94 42v0z" />
<glyph unicode="&#xe621;" glyph-name="yu-filled" d="M512 735q-91 0-173.5-35.5t-142.5-95.5-95.5-142.5-35.5-173.5 35.5-173.5 95.5-142.5 142.5-95.5 173.5-35.5 173.5 35.5 142.5 95.5 95.5 142.5 35.5 173.5-35.5 173.5-95.5 142.5-142.5 95.5-173.5 35.5zM538 451q-16-2-30-2-12-2-21-4v46q14-4 47-4h169q21 0 33 2v-42q-27 4-116 4-2 2-18-58-1-5-3-11h63q23 0 53 4-2-4-2-11-6-28-4-52v-104q0-35 4-55h-51q2 17 4 53v130h-132v-122q0-33 2-59h-51q2 8 4 41 0 6 2 16v114q-1 20-4 47 21-2 76-2 8 49 8 65 1 4 2 4h-35zM392 306v-191q6-41-78-49-6 26-12 43 49-10 49 12v185q-50-2-65-2-10-2-16 0v37q20-4 97-2-6 4-14 14-18 24-45 49l33 18q28-30 32-34l39 65h-63q-30-2-43-2h-18v38q16-4 85-2 84-2 96 2 4-2 2-4-8-18-77-120l18-24h51q12 2 18 2 2 0 3-0.5t1-1.5q-10-31-26-90l-41 4 20 53h-46zM461 50q-14 20-39 34 100 31 126 74 27 36 27 156 47 4 51-4 0-4-2-6-6-10-6-24-7-108-33-145-28-42-124-85zM709 50q-57 54-102 89l31 31q72-58 106-86z" />
<glyph unicode="&#xe622;" glyph-name="recommend" d="M341 340h48v-35h-48v35zM341 398h48v-35h-48v35zM341 282h48v-36h-48v36zM905 612h-786q-23 0-39.5-16.5t-16.5-40.5v-413q0-24 16.5-40t39.5-16h293l-40-122 231 122h302q23 0 39.5 16t16.5 40v413q0 24-16.5 40.5t-39.5 16.5zM561 452q15-3 42-2h31v6q0 12-3 22 29-2 32-3 0-2-1-3-4-6-4-15v-7h67v7q0 18-2 23 29-2 32-3 0-1-1-4-3-7-3-17v-6h42q29 0 39 2v-24q-14 1-39 2h-42q-1-13 3-25h-31q2 5 2 25h-67q0-9 2-18 1-5 2-7h-31l3 25h-31q-26 0-42-2v24zM402 477q12-15 24-36l-24-12q-9 20-24 33zM291 325q-19-10-29-14v-74q2-41-51-42-4 21-9 29 21-3 30 2t7 17v60q0-2-17-9-13-6-21-9l-4 30q10 1 42 14v64h-12q-22-1-30-2v27q1 0 8-1 13-2 22-2h12v35q-1 13-2 25v6q36-1 33-6 0-3-2-7-6-7-6-18v-35h10q7 0 19 2 4 1 7 1v-27q-12 1-25 2h-11v-57q15 5 29 16v-27zM482 222q-4 0-9 2h-132q-1-12 1-29 0-1 1-2h-28v2q2 17 2 29v153l-18-27q-18 8-24 11 41 36 58 115 33-6 35-12 0-4-5-8-7-6-12-14.5t-10-21.5h90q21 0 42 4v-29h-13q-13 2-30 3h-17v-35h13q23 0 39 3v-29q-20 2-40 3h-12v-35h11q22 0 41 3v-29q-19 1-41 3h-11v-36h26q33-1 42 1l1 1v-26zM645 196h-31q2 10 2 36v77q-13-20-42-42-10 11-21 21 50 26 93 84h-45q-20 0-37-3h-2v25q0-1 1-1 16-2 38-1h57q10 17 13 26 7-3 13-5l18-5q-2-3-4-4-7-5-11-12h101q27-1 42 2v-25q-15 3-39 3h-117q-9-12-22-28-7-8-10-12v-101q-1-28 3-35zM837 268q-15 3-38 3h-35v-57q-2-14-49-20-3 17-12 31 38-6 36 10v36h-45q-18 0-24-2-8 0-14-1v25q11-4 38-3h45v18q20 8 36 18h-70q-16 0-33-2h-4v24q4 0 13-1 13-1 23-1h83q24-1 38 2v-26q-18 0-28-4-11-5-33-19v-9h35q30 0 38 3v-25z" />
<glyph unicode="&#xe623;" glyph-name="reduce-filled" d="M512 735q-91 0-173.5-35.5t-142.5-95.5-95.5-142.5-35.5-173.5 35.5-173.5 95.5-142.5 142.5-95.5 173.5-35.5 173.5 35.5 142.5 95.5 95.5 142.5 35.5 173.5-35.5 173.5-95.5 142.5-142.5 95.5-173.5 35.5zM731 235h-438v106h438v-106z" />
<glyph unicode="&#xe624;" glyph-name="sandglass-filled" d="M720 506q6 7 4.5 10t-10.5 3h-373q-9 0-10.5-3t4.5-10l141-167q12-14 12-34t-12-35l-141-166q-6-7-4.5-10t10.5-3h373q9 0 10.5 3t-4.5 10l-141 166q-12 15-12 35t12 34zM540 356q-5-6-12.5-6t-12.5 6l-82 94q-5 6-3.5 10t9.5 4h177q8 0 9.5-4t-3.5-10zM527.5 752q-90.5 0-173.5-35.5t-143-95.5-95-142.5-35-173.5 35-174 95-142.5 143-95 173.5-35.5 173.5 35.5 143 95 95 142.5 35 174-35 173.5-95 142.5-143 95.5-173.5 35.5zM593 282l141-166q14-17 7.5-30.5t-27.5-13.5h-373q-21 0-27.5 14t7.5 30l141 166q7 9 7 22.5t-7 22.5l-141 167q-14 16-7.5 30t27.5 14h373q21 0 27.5-14t-7.5-30l-141-167q-7-9-7-22.5t7-22.5z" />
<glyph unicode="&#xe625;" glyph-name="score-filled" d="M704 444v58h-26v-58q0-9-10-9h-57v-26h57q10 0 10-9v-58h26v58q0 9 9 9h58v26h-58q-9 0-9 9zM525 266v124h-71v-124q0-10-9-10h-125v-70h125q9 0 9-10v-124h71v124q0 10 9 10h125v70h-125q-9 0-9 10zM512 735q-91 0-173.5-35.5t-142.5-95.5-95.5-142.5-35.5-173.5 35.5-173.5 95.5-142.5 142.5-95.5 173.5-35.5 173.5 35.5 142.5 95.5 95.5 142.5 35.5 173.5-35.5 173.5-95.5 142.5-142.5 95.5-173.5 35.5zM467 556h45v45h22v-45h45v-22h-45v-45h-22v45h-45v22zM678 176q0-9-10-9h-124v-125q0-9-10-9h-89q-9 0-9 9v125h-125q-9 0-9 9v90q0 9 9 9h125v125q0 9 9 9h89q10 0 10-9v-125h124q10 0 10-9v-90zM789 400q0-10-9-10h-58v-57q0-10-9-10h-45q-9 0-9 10v57h-58q-9 0-9 10v44q0 10 9 10h58v57q0 10 9 10h45q9 0 9-10v-57h58q9 0 9-10v-44z" />
<glyph unicode="&#xe626;" glyph-name="schedule" d="M676 386q-113 0-192.5-79.5t-79.5-192.5 79.5-193 192.5-80 193 80 80 193-80 192.5-193 79.5zM676-128q-100 0-171 71t-71 171 71 171 171 71 171-71 71-171-71-171-171-71zM681 260q-6 0-10.5-4.5t-4.5-10.5v-146h-152q-7 0-11.5-4.5t-4.5-10.5 4.5-10.5 11.5-4.5h166q16 0 16 9v167q0 6-4.5 10.5t-10.5 4.5zM106 705h666v-273h30v303h-727v-818h303v31h-272v757zM696 568h-409v-30h409v30zM242 568h-60v-30h60v30zM287 311h122v31h-122v-31zM242 342h-60v-31h60v31zM182 84h60v31h-60v-31z" />
<glyph unicode="&#xe627;" glyph-name="setting-filled" d="M512.5 374q-23.5 0-43.5-11-31-18-40-53t8-66q12-20 32.5-32t43.5-12 43 12q31 18 40.5 53t-8.5 66q-12 20-32 31.5t-43.5 11.5zM747 398q-3 7-12 7-3 0-5-1-15-7-32-7-32 0-54.5 22.5t-22.5 54.5q0 16 7 32 6 12-6 17-42 20-88 24v0h-1q-5 0-8-3-4-4-5-9-1-17-10-32-22-38-66-38-20 0-38 10-15 9-24 23-4 5-11 5-4 0-8-2-37-26-64-64-3-5-2-10t5-9q14-9 23-24 15-27 7-58t-35-46q-15-9-32-10-5-1-8.5-5t-3.5-9q4-46 24-88 3-8 12-8 3 0 5 2 16 7 32 7 32 0 54.5-22.5t22.5-54.5q0-16-7-32-6-12 6-17 42-20 88-24v0h1q5 0 8 3 4 4 5 9 1 17 10 32 22 38 66 38 21 0 38-10 15-9 24-23 4-4 9-5v0h2q4 0 8 2 37 27 64 64 3 5 2 10t-5 9q-14 9-23 24-15 27-7 58t35 46q15 9 32 10 5 1 8.5 5t3.5 9q-4 46-24 88zM566 196q-25-14-53-14t-52.5 14-39.5 38q-21 38-10 80.5t49 64.5q24 14 52.5 14t53-14.5 38.5-38.5q22-38 10.5-80t-48.5-64zM512 735q-91 0-173.5-35.5t-142.5-95.5-95.5-142.5-35.5-173.5 35.5-173.5 95.5-142.5 142.5-95.5 173.5-35.5 173.5 35.5 142.5 95.5 95.5 142.5 35.5 173.5-35.5 173.5-95.5 142.5-142.5 95.5-173.5 35.5zM782.5 289q-8.5-10-22.5-11-12-1-23-8-21-12-27-35t6-44q6-11 16-18 11-8 13.5-20.5t-5.5-23.5q-28-41-69-69-8-6-18-6-3 0-5 1-13 2-21 13-7 10-18 16-13 8-29 8-33 0-50-29-7-11-8-23-1-14-11-22-9-7-20-7h-3q-49 4-94 25-12 6-16.5 18t1.5 24q5 12 5 24 0 24-17 41t-41 17q-12 0-24-5-6-3-13-3-20 0-29 18-21 45-25 94-1 13 7 23t22 11q12 1 23 8 21 12 27 35t-6 44q-6 11-16 18-11 8-13.5 21t5.5 23q28 41 69 69 8 6 18 6 16 0 26-14 7-10 18-16 14-8 29-8 33 0 50 29 7 11 8 23 1 14 11 22 9 7 20 7h3q49-4 94-25 12-6 16.5-18t-1.5-24q-5-12-5-24 0-24 17-41t41-17q12 0 24 5 6 3 13 3 20 0 29-18 21-45 25-94 2-13-6.5-23z" />
<glyph unicode="&#xe628;" glyph-name="ticket-filled" d="M757 427q-20-17-47-17-31 0-53.5 22.5t-22.5 54.5q0 26 16 47l-48 48q-9 10-22 10-12 0-21-9l-342-342q-9-9-9-21 0-13 9-22l49-49q20 17 47 17 31 0 53.5-22.5t22.5-54.5q0-26-16-47l49-49q9-9 20-9 13 0 22 9l342 343q9 9 9 21t-9 21zM343 202l-14 14 38 38 15-14zM406 264l-15 14 179 178 14-14zM439 105l-14 15 39 38 14-14zM502 168l-14 14 178 178 14-14zM512 735q-91 0-174-35.5t-142.5-95.5-95-142.5-35.5-173.5 35.5-173.5 95-142.5 142.5-95.5 174-35.5 173.5 35.5 142.5 95.5 95.5 142.5 35.5 173.5-35.5 173.5-95.5 142.5-142.5 95.5-173.5 35.5zM819 323l-342-343q-15-14-35-14v0q-19 0-33 14l-55 55q-3 3-3 7t3 6q17 17 17 41t-17 41-41 17-41-17q-3-3-7-3v0q-4 0-6 3l-55 55q-15 14-14 35 0 20 14 34l342 342q14 14 34 14t35-15l55-54q2-3 2-7t-2-6q-17-17-17-41t17-41 40.5-17 40.5 17q7 7 13 0l56-55q14-14 14-34t-15-34z" />
<glyph unicode="&#xe629;" glyph-name="ticket" d="M939 431l-76 76q-9 9-19 0-23-23-56-23t-56.5 23.5-23.5 56.5 23 56q4 4 4 9.5t-4 9.5l-76 76q-20 20-49 20-27 0-46-19l-475-476q-20-19-20-47t20-48l76-76q4-4 9-4v0q6 0 9 4 24 23 57 23t56.5-23.5 23.5-56.5-23-57q-4-3-4-8.5t4-9.5l76-76q20-20 47-20 28 0 48 20l475 475q20 20 20 47.5t-20 47.5zM921 355l-475-476q-13-12-30-12t-29 12l-67 68q22 28 22 65 0 44-31 75t-75 31q-37 0-65-22l-67 67q-13 12-13 30 0 17 12 29l475 475q12 12 28 12 18 0 31-13l67-67q-22-29-22-65 0-44 31-75t75-31q36 0 65 22l68-68q12-12 12-28.5t-12-28.5zM288 178l-20 20 54 53 19-20zM375 264l-20 20 247 248 20-20zM422 44l-20 20 53 53 20-19zM508 131l-20 20 248 247 20-20z" />
<glyph unicode="&#xe62a;" glyph-name="upgrade-filled" d="M540 495q-12 14-30 14-15 0-26-12l-178-196q-11-12-7-21 2-6 15-6h108v-195q0-18 12-30.5t29-12.5h98q17 0 29 12.5t12 30.5v195h108q12 0 15 7 4 9-7 21zM512 735q-91 0-173.5-35.5t-142.5-95.5-95.5-142.5-35.5-173.5 35.5-173.5 95.5-142.5 142.5-95.5 173.5-35.5 173.5 35.5 142.5 95.5 95.5 142.5 35.5 173.5-35.5 173.5-95.5 142.5-142.5 95.5-173.5 35.5zM742 273q-7-18-32-18h-90v-176q0-25-17-43.5t-42-18.5h-98q-25 0-42 18.5t-17 43.5v176h-90q-25 0-32 18-9 20 11 41l177 196q17 17 40 17 26 0 44-19l177-193q20-22 11-42z" />
<glyph unicode="&#xe62b;" glyph-name="user" d="M511.5 630q50.5 0 84-33.5t33.5-84-33.5-84-84-33.5-84 33.5-33.5 84 33.5 84 84 33.5zM511.5 125q78.5 0 161.5-22.5t132-50 49-44.5v-62h-685v62q0 17 49 44.5t132 50 161.5 22.5zM511.5 737q-92.5 0-158.5-66t-66-158.5 66-158.5 158.5-66 158.5 66 66 158.5-66 158.5-158.5 66zM511.5 232q-47.5 0-105-8.5t-118.5-27-111-44-82-63.5-32-81v-169h897v169q0 43-32 81t-82 63.5-111 44-118.5 27-105 8.5z" />
<glyph unicode="&#xe62c;" glyph-name="order-filled" d="M506 730q-91 0-173.5-35.5t-142.5-95-95.5-142.5-35.5-174 35.5-173.5 95.5-142.5 142.5-95.5 173.5-35.5 174 35.5 142.5 95.5 95 142.5 35.5 173.5-35.5 174-95 142.5-142.5 95-174 35.5zM497 48h-205v466h410v-298h-19v279h-372v-428h186v-19zM437 395v19h186v-19h-186zM623 283v-18h-186v18h186zM370 265v18h37v-18h-37zM407 153v-19h-37v19h37zM370 395v19h37v-19h-37zM530 134h-93v19h93v-19zM642 6l-101 100 40 40 61-60 160 160 40-40-200-200z" />
<glyph unicode="&#xe62d;" glyph-name="location-filled" d="M512 735q-95 0-176-47t-128-128-47-176q0-53 34-127t76.5-136.5 97.5-130.5 79.5-95 40.5-44q9-10 23-10h1q13 0 23 11l109 125q218 267 218 407 0 95-47 176t-128 128-176 47v0zM512 224q-66 0-113 47t-47 113 47 112.5 113 46.5 113-46.5 47-112.5-47-113-113-47v0z" />
<glyph unicode="&#xe62e;" glyph-name="ok" d="M888 502q-10 9-23 8.5t-22-10.5l-427-454-233 230q-10 9-23 9t-22.5-9.5-9.5-23 10-22.5l256-253h1q1-1 7-4 0-1 1-1.5t2-1.5q6-2 12-2t12 3q1 0 2 1t2 1q5 3 7 5v0 0l449 479q9 9 9 22.5t-10 22.5z" />
<glyph unicode="&#xe62f;" glyph-name="close" d="M557 299l266 264q9 9 9 22t-9.5 22.5-22.5 9.5-23-9l-265-264-263 264q-9 9-22.5 9t-23-9-9.5-22.5 10-22.5l263-264-265-264q-10-9-10-22.5t9.5-22.5 22.5-9 23 9l265 264 265-267q10-9 23-9t22.5 9.5 9.5 22.5-9 23z" />
<glyph unicode="&#xe630;" glyph-name="search" d="M935-4q24-24 24-59t-24.5-59.5-59.5-24.5-59 24v0l-246 246q-79-46-170-46t-168 44.5-122 122-45 168.5 45 168 122 122 168 45 168.5-45 122-122 44.5-168-46-170l246-246zM400 663q-104 0-177.5-73.5t-73.5-177.5 73.5-177.5 177.5-73.5 177.5 73.5 73.5 177.5-73.5 177.5-177.5 73.5v0z" />
<glyph unicode="&#xe631;" glyph-name="check" d="M65 305q5-2 13.5-7t37-32.5 58.5-67.5 74-121 88-184q9-22 27.5-32.5t36.5-9 33 11.5 19 25q6 18 39.5 85t91 169 153 247 201.5 286q28 32 21 60-7 25-37 7-7-4-14-10-33-27-81.5-73t-122.5-120.5-160.5-176-158.5-202.5v0q-48 92-111 156-128 130-208-11z" />
<glyph unicode="&#xe632;" glyph-name="modify" d="M65 51v-186h186l484 521-186 186zM884 535q14 14 14 37.5t-14 37.5l-111 111q-14 14-37.5 14t-37.5-14l-111-111 186-187zM437-61l-74-74h596v74h-522z" />
<glyph unicode="&#xe633;" glyph-name="maizuo" d="M762 735h-501q-81 0-138.5-57.5t-57.5-138.5v-501q0-82 57.5-139t138.5-57h501q82 0 139 57t57 139v501q0 81-57 138.5t-139 57.5zM576 105q0-27-19-46t-46-19-46 19-19 46v73q0 27 19 46t46 19 46-19 19-46v-73zM838 102q-1-27-21-45t-47-17-45.5 20.5-17.5 46.5v12q0 81-57 138.5t-138 57.5-138.5-57.5-57.5-138.5q0-4 1-12 1-26-17.5-46t-45.5-21-47 17-21 45v17q0 89 43.5 164t118.5 119 164 44q46 0 90-13v0q14-4 28 1t20 23v1q17 48 51 87 17 18 41 20.5t44-12.5q22-16 26.5-42.5t-10.5-48.5q-36-40-36-94 0-37 19-71v0q53-81 53-178v-17z" />
<glyph unicode="&#xe634;" glyph-name="play" d="M188 652q0 33 20.5 45t49.5-5l609-351q29-17 29-41t-29-41l-609-351q-29-17-49.5-5t-20.5 45v704z" />
<glyph unicode="&#xe635;" glyph-name="help-filled" d="M512 735q-91 0-173.5-35.5t-142.5-95.5-95.5-142.5-35.5-173.5 35.5-173.5 95.5-142.5 142.5-95.5 173.5-35.5 173.5 35.5 142.5 95.5 95.5 142.5 35.5 173.5-35.5 173.5-95.5 142.5-142.5 95.5-173.5 35.5zM541 12h-69v71h69v-71zM598 267q-71-52-63-126h-60q-3 52 11 79 8 25 55 72l5 5q58 49 52 91-8 79-85 82-96-3-93-113h-63q-3 91 57 132 42 33 102 33 137-11 145-137 3-58-63-118z" />
<glyph unicode="&#xe636;" glyph-name="refresh" horiz-adv-x="1000" d="M632 101q-73-51-163-50-8 0-23 1-2 0-9 1l-18 3q-1 0-10 2-11 3-17 5-1 0-4 1t-4 1q-10 4-19 7-1 1-3 1l-1 1q-13 6-21 10l-1 1q-36 19-64 47v0.5t-1 0.5q-9 10-16 19-2 2-3 4-61 76-61 173h73l-117 176-118-176h74q0-113 64-207 1-1 1.5-2l0.5-1q2-4 13-17 1-2 3-4t2-3q8-9 21-23 2-1 2-2 37-37 83-62l2-1q13-7 27-13 1-1 3-2t4-1q8-3 23-9 7-2 12-4 10-3 21-5 13-3 14-3 5-2 6-2 4 0 21-2 5-1 7-2 20-1 37-1 115 0 209 66 15 11 18.5 28.5t-7.5 32.5q-10 15-28 18.5t-33-7.5zM839 329q0 114-65 208l-1 2q-7 9-17 21 0 1-1 3-57 68-137 103-1 0-2.5 0.5t-2.5 0.5q-9 4-26 10-8 3-9 3-9 3-23 6-2 0-6 1t-7 2q-1 0-3 0.5t-3 0.5q-3 1-18 3-2 0-5.5 0.5t-6.5 0.5q-12 1-29 2h-6q-115 0-209-66-15-11-18-29t7.5-33 28.5-18 32 8q73 51 162 50 13 0 25-2h7q13-2 20-4 1 0 8-1 12-3 19-5l6-2q12-4 21-8l2-1q62-26 105-79v0q64-77 64-177h-74l118-176 117 176h-73z" />
<glyph unicode="&#xe637;" glyph-name="presold-triangle" d="M407 486l44 43 11-12-43-43zM386 507l44 43 11-11-44-43zM365 528l43 44 12-12-44-43zM470 429l-18 17 79 79 17-18zM44 735v-894l936 894h-936zM264 197q-11 7-18 10 19 13 12 20l-62 62q-16-17-21-22-3-4-5-6l-13 13q8 5 34 31h-10q-14 2-31 2l5 17q20-1 22-1l-9 35-21-21q-9-11-13-15t-7-6l-12 13q6 4 29 27 28 27 31 33h1.5t0.5-1q3-9 14-66l14-2 17 17q4 5 6 7 1 1 2 1 7-14 21-39l-15-12-11 24-15-15 63-64q16-12-9-42zM275 302q-2 2-4 6l-38 38q-8 6-17 14 7 6 25 25-13 19-19 24v2l-12-11q-4-6-9-11-4-5-6-8l-15 15q6 4 17 15l43 43q0 1 5.5 5.5t7.5 7.5q7 7 10 11l14-14q-10-7-40-37-1 0 17-30l21 21q7 8 16 19 1-2 3-4 7-12 16-19l35-35q11-11 19-17l-17-17q-5 6-16 19l-43 44-45-44 41-41q11-11 21-19l-17-17q-2 4-13 15zM318 240q-11 2-24-1 23 43 17 66-3 21-43 61 14 17 18 16 2-1 2-3 1-5 6-10 34-38 37-59 5-24-13-70zM401 323q-37-1-64-4v20q42 5 64 7v-23zM399 470l-30 30q1-15 1-35l-22-3q4 56-16 100 29 11 29 8v-1q-2-1-1-7-1-13 1-18l45 45q-16 2-31 0l5 21q25 3 33 3l-4-22 37 38q11 11 12 11 7 9 9 11l11-11q-4-4-8-7-4-5-14-13l-34-35 12-12 36 37q7 7 9 11l12-13q-5-4-22-19l-26-25 12-12 39 39q4 5 6 8l11-11-7-7q-5-5-17-15l-23-23 12-12 33 33q10 11 23 26l12-12q-12-12-25-23l-91-90q3-3 7-5l-15-14q-4 6-21 24zM566 487q-3 6-8 11l-79-79q5-6 11-9l-17-17q-5 7-19 21l-29 30q4 1 10 5.5t15 15.5l58 58q24 22 27 29 4-7 26-28 15-15 23-21l-17-17z" />
<glyph unicode="&#xe638;" glyph-name="top" d="M814 229q-9 11-29 40t-29 41q-31 43-69 94-49 67-69 94-34 45-61 79-23 29-44 31v0h-4q-21-2-43-31-27-34-61-79-24-34-69-94-38-52-69-94-9-12-29-41t-29-40q-24-31-14-50 10-20 46-20 7 0 24-0.5t27-0.5h48q28 0 36-23 9-26 9-63v-146q0-45 15-65 8-12 18-16.5t31-4.5q40 0 62 1 23-1 66-1 20 0 30 5t19 17q14 19 14 64l1 30v56q0 11-0.5 24t-0.5 24v12q0 43 7 63 8 22 36 22 6 0 22 0.5t26.5 0.5 27 0.5 23.5 0.5q36 0 46 20 10 19-14 50v0zM191 710q0 11 8.5 19.5t20.5 8.5h586q12 0 20.5-8.5t8.5-19.5v-34q0-11-8.5-19t-20.5-8h-586q-12 0-20.5 8t-8.5 19v34z" />
<glyph unicode="&#xe639;" glyph-name="lover" d="M521-121l-397 372q-63 76-63 176 0 111 78.5 190.5t189.5 79.5q106 0 183-72 77 72 183 72 111 0 189.5-79.5t78.5-190.5q0-100-63-176l-2-3-311-284z" />
<glyph unicode="&#xe63a;" glyph-name="clock" d="M527.5 764q-90.5 0-173-35.5t-142.5-95.5-95.5-143-35.5-173.5 35.5-173 95.5-142.5 142.5-95.5 173-35.5 173.5 35.5 142.5 95.5 95 142.5 35.5 173-35.5 173.5-95 143-142.5 95.5-173.5 35.5zM527.5-41q-96.5 0-179 48t-130.5 130.5-48 179 48 179 130.5 130.5 179 48 179-48 130.5-130.5 48-179-48-179-130.5-130.5-179-48zM550 540h-67v-268l232-143 36 58-201 121v232z" />
<glyph unicode="&#xe63b;" glyph-name="qrcode" d="M32 896h410q12-1 19.5-8.5t10-24 3.5-27.5 0-34.5-1-29.5v-224q0-8 1-29t0.5-32-2.5-25.5-7.5-23-15-12.5-28.5-4.5-45 0.5-32 1h-218q-9 0-31.5-1t-34-0.5-27 3-24 10-10.5 19.5v411q9 24 32 31v0 0zM88 804v-293h296v297h-294q-2-1-2-4v0zM583 896h411q26-10 31-37v-399q-6-29-29-35-12-4-29.5-4t-41 1-32.5 1h-211q-9 0-33-1.5t-42-1-30 4.5q-10 3-16.5 12t-8.5 25-2 28 0.5 34.5 0.5 30.5v209q0 10-1 34t-0.5 36 3 27.5 10 24 20.5 10.5v0zM639 804v-293h297v297h-295q-2-1-2-4v0zM223 718q31 6 52.5-11.5t22.5-45.5q0-36-30-53.5t-60-2.5q-22 12-29 37t5 48 39 28v0zM774 718q50 9 68-32 14-35-8-65-20-28-60-21-29 5-40.5 31.5t0 54 40.5 32.5v0zM440-128h-407q-26 7-33 32v409q8 25 28 30 12 3 29 3.5t40.5-1 33.5-1.5h211q9 0 32.5 1.5t41.5 1.5 30-4q11-3 18-12t9-25 2.5-28-0.5-34-1-30v-216q0-9 0.5-23.5t0.5-24v-22.5t-2.5-21.5-6-17-10.5-12.5-16-5v0zM88 252v-292h296v296h-294q-2 0-2-4v0zM1025 308v-114q-2-10-1.5-61.5t0.5-62.5h-294v66q-6 2-44 2h-47q-2-23-1.5-132.5t0.5-133.5h-54q-13 2-21 10.5t-10.5 24.5-3 28 0.5 35.5 1 32.5v211q0 9-1.5 33t-1 42 4.5 30q2 6 5.5 10.5t9.5 7.5 11 4.5 15 2 15 1 17.5 0 17.5-0.5h199v-180h93q0 16-0.5 91t1.5 89q23 1 42 0.5t32-9.5 14-27v0zM230 168q34 3 55-23t9-60q-7-18-23.5-28t-34.5-8.5-33.5 9.5-23 26.5-1.5 41.5q10 37 52 42v0zM830-128h-100q1 9 0.5 53.5t1.5 52.5h98v-106zM1025-22v-70q-5-28-33-36h-70q0 9-0.5 53.5t1.5 52.5h102z" />
<glyph unicode="&#xe63c;" glyph-name="info" d="M512 832q-91 0-174-35.5t-143-95.5-95.5-143-35.5-174 35.5-174 95.5-143 143-95 174-35 174 35 142.5 95 95 143 35.5 174-35.5 174-95 143-142.5 95.5-174 35.5zM511.5 20q-98.5 0-182.5 49t-132.5 132.5-48.5 182.5 48.5 183 132.5 132.5 182.5 48.5 182.5-48.5 132.5-132.5 48.5-183-48.5-182.5-132.5-132.5-182.5-49zM511.5 524q-17.5 0-29.5-12t-12-30v-308q0-17 12-29.5t29.5-12.5 30 12.5 12.5 29.5v308q0 18-12.5 30t-30 12zM511.5 657q-17.5 0-29.5-12t-12-29.5 12-30 29.5-12.5 30 12.5 12.5 30-12.5 29.5-30 12z" />
<glyph unicode="&#xe63d;" glyph-name="seat-ok" d="M869 374q-2 27-22 46t-48 19v41q0 110-83 187.5t-200 77.5-200-77.5-83-187.5v-41q-27 0-47.5-19t-23.5-46v0-236q0-29 29.5-59t58.5-30h42q0-14 10-24.5t25-10.5h71q15 0 25 10.5t10 24.5h189q0-14 10.5-24.5t24.5-10.5h71q15 0 25.5 10.5t10.5 24.5h17q30 0 59.5 30t29.5 59v236h-1zM398 486q6 7 15.5 7.5t16.5-5.5l71-63 117 119q6 7 15.5 7t16.5-6 7-14.5-6-15.5l-133-134q-6-7-15-7t-16 6l-88 77q-7 5-7 14t6 15v0zM820 368v-230q-1-9-15-24-15-14-24-14h-17q-17 0-30.5-10t-17.5-26h-46q-5 16-18 26t-30 10h-189q-16 0-29.5-10t-18.5-26h-45q-5 16-18.5 26t-29.5 10h-41q-10 0-24 14.5t-15 23.5v230q1 9 7 15t14 6h35q8 0 14-6t7-15v-153q0-21 14.5-36t35.5-15h354q21 0 35.5 15t14.5 36v155q1 8 7 13.5t14 5.5h35q8 0 14-5.5t6-13.5q0-1 1-2v0z" />
<glyph unicode="&#xe63e;" glyph-name="cola" d="M696-68h-366q-7 0-13 5t-7 12l-97 613q-1 9 5 16t15 7h185q8 0 14-6t6-14-6-14-14-6h-162l91-573h332l89 574-253-1q-8 0-14 6t-6 14 6 14 14 6l276 1q9 0 15-7t5-17l-95-613q-1-7-7-12t-13-5zM513.5 545q-8.5 0-14 6t-5.5 14v169q-10 25-3.5 48.5t27 38 45.5 13.5q23 0 42-15l110-20q8-2 13-9t3.5-15-8.5-12.5-15-3.5l-115 21q-6 1-10 5-20 19-42 3-21-15-9-42 2-4 2-8v-173q0-8-6-14t-14.5-6z" />
<glyph unicode="&#xe63f;" glyph-name="question" d="M512 896q-139 0-257-68.5t-186.5-186.5-68.5-257 68.5-257 186.5-186.5 257-68.5 257 68.5 186.5 186.5 68.5 257-68.5 257-186.5 186.5-257 68.5zM512-55q-89 0-170.5 35t-140 93.5-93.5 140-35 170.5 35 170.5 93.5 140 140 93.5 170.5 35 170.5-35 140-93.5 93.5-140 35-170.5-35-170.5-93.5-140-140-93.5-170.5-35zM512 677q-76 0-129.5-54t-53.5-129v-37h73v37q0 45 32.5 77t77.5 32 77.5-32 32.5-77q0-29-14.5-49t-48.5-50q-19-16-29.5-27t-25.5-30-22-40.5-7-47.5v-49h74v49q0 25 13 43.5t46 47.5q20 17 31 28t26 31 22.5 43.5 7.5 50.5q0 75-53.5 129t-129.5 54zM475 165h74v-74h-74v74z" />
<glyph unicode="&#xe640;" glyph-name="warn" d="M512 821q-91 0-174-35.5t-143-95.5-95.5-143-35.5-174 35.5-174 95.5-143 143-95.5 174-35.5 174 35.5 143 95.5 95.5 143 35.5 174-35.5 174-95.5 143-143 95.5-174 35.5zM512-11q-104 0-192.5 51.5t-140 140-51.5 192.5 51.5 192.5 140 139.5 192.5 51 192.5-51 140-139.5 51.5-192.5-51.5-192.5-140-140-192.5-51.5zM465 172v0q0-22 15.5-37.5t37.5-15.5 38 15.5 16 37.5v0 0q0 22-16 38t-38 16-37.5-16-15.5-38v0zM518 627q-22 0-37.5-16t-15.5-38v-228q0-22 15.5-37.5t37.5-15.5 38 15.5 16 37.5v228q0 22-16 38t-38 16z" />
<glyph unicode="&#xe641;" glyph-name="coin" horiz-adv-x="1245" d="M638 340q-168 0-287 64-57 31-89 72-34 43-34 91t34 92q33 41 91 72 119 63 285 63 168 0 287-64 57-31 89-72 34-43 34-91t-34-91q-32-41-89-72-119-64-287-64zM638 768q-160 0-273-60-54-29-82.5-65.5t-28.5-75.5 28.5-75.5 80.5-64.5q114-61 275-61t275 61q52 28 80.5 64.5t28.5 75.5-28.5 75.5-80.5 64.5q-114 61-275 61zM638 157q-167 0-286 53-60 27-92 62.5t-32 74.5q0 34 24 65 8 11 18 3t2-18q-18-25-18-50 0-31 27-60 29-30 81-53 114-51 276-51t276 51q52 23 81 53 27 29 27 60 0 24-15 46-8 10 2.5 17.5t18.5-2.5q20-29 20-61 0-39-32-74.5t-92-62.5q-119-53-286-53zM638-19q-167 0-286 53-60 27-92 62.5t-32 74.5q0 34 24 65 8 11 18 3t2-18q-18-24-18-50 0-31 27-60 29-30 81-53 114-51 276-51t276 51q52 23 81 53 27 29 27 60 0 24-15 46-8 11 2.5 18.5t18.5-3.5q20-29 20-61 0-39-32-74.5t-92-62.5q-119-53-286-53zM652 520q-2 0-5 1l-180 64q-9 4-9 13.5t10 11.5l171 45q4 1 7 0l186-62q9-3 8.5-13t-9.5-12l-176-47q-2-1-3-1zM515 596l137-49 131 35-141 47z" />
<glyph unicode="&#xe642;" glyph-name="yuwan-boy" d="M843 381q8 35 8 71v9q0 88-43 163t-118 118-163 43h-26q-88 0-162.5-43t-118-118-43.5-163v-9q0-35 8-70-19-5-31.5-21t-12.5-37q0-24 17.5-41.5t42.5-17.5h2q-6 30-6 59 0 88 45 162.5t122 116.5q16 8 32 8 14 0 41-8 43-14 76-14 29 0 70 14 30 10 45 10t30-8q79-41 125-116.5t46-164.5q0-29-6-59h1q24 0 41.5 17.5t17.5 41.5q0 20-11 35.5t-29 21.5zM754-128q-32 22-78 39.5t-76 22.5l-30 6v71q-29-5-57-5-32 0-63 6v-72q-12-2-33-6t-70.5-22-81.5-40h489zM642 573q-11 5-22 5t-36-8q-41-14-71-14-33 0-76 13-23 8-34 8t-22-6q-69-37-108.5-103.5t-39.5-143.5q0-116 82-198.5t198-82.5 198.5 82.5 82.5 198.5q0 79-41 145.5t-111 103.5zM320 367q0 18 13 30.5t31 12.5 30.5-12.5 12.5-30.5-12.5-31-30.5-13-31 13-13 31zM671 232q-17-48-59.5-78t-94-30-93.5 30-59 78q-3 7 0 13.5t10 9 13.5-1 8.5-9.5q14-38 47-61.5t73.5-23.5 74 23.5 46.5 61.5q3 6 9.5 9.5t13 1 9.5-9 1-13.5zM661 323q-18 0-31 13t-13 31 13 30.5 31 12.5 30.5-12.5 12.5-30.5-12.5-31-30.5-13z" />
<glyph unicode="&#xe643;" glyph-name="yuwan-girl" d="M792 397q0 1-32.5 5.5t-86.5 21.5-97 46q-29 20-54 44t-40.5 44.5-27 38-17.5 27.5-7 9q-106-31-163.5-126.5t-35.5-204.5q21-98 99.5-162t179.5-64q29 0 58 6 109 23 173.5 114t50.5 201zM316 351q0 18 13 30.5t31 12.5 30.5-12.5 12.5-30.5-12.5-31-30.5-13-31 13-13 31zM666 246q-17-48-59.5-78t-93.5-30-93.5 30-59.5 78q-3 7 0.5 13.5t10 9 13-0.5 9.5-10q13-38 46.5-61.5t73.5-23.5 73.5 23.5 46.5 61.5q3 6 9.5 9.5t13.5 1 10-9 0-13.5zM656 307q-18 0-30.5 13t-12.5 31 12.5 30.5 30.5 12.5 31-12.5 13-30.5-13-31-31-13zM512 777q-108 0-199.5-55t-145-150-53.5-206v-494h170q13 30 34 51.5t45 32 40 14.5 31 5v70q-90 22-156 89.5t-85 159.5q-18 86 9 168t91 140 150 76q6 1 10-4 2-5 8.5-15t23.5-34.5 34.5-46.5 41.5-45 45-35q39-23 95-39t80.5-20 37.5-5q7-1 8-7 18-86-9-168t-91.5-140-150.5-76h-4v-68q15-1 31.5-5t40.5-14.5 45-32 33-51.5h188v494q0 111-53.5 206t-145 150-199.5 55zM326-128q9 18 28.5 35t37.5 24q27 10 51 10 11 0 18.5 8t7.5 18v75q19-3 34-3 22 0 35 1v-73q0-11 7.5-18.5t18.5-7.5q23 0 51-10 18-7 39-25.5t27-33.5h-355z" />
<glyph unicode="&#xe644;" glyph-name="bag" horiz-adv-x="1097" d="M829 784h-634q-35 0-59-24.5t-24-58.5v-634q0-35 24-59t59-24h634q34 0 58.5 24t24.5 59v634q0 34-24.5 58.5t-58.5 24.5zM879 84q0-28-19.5-47.5t-47.5-19.5h-600q-28 0-47.5 19.5t-19.5 47.5v600q0 28 19.5 47.5t47.5 19.5h600q28 0 47.5-19.5t19.5-47.5v-600zM645 584h34v-100q0-69-49-118t-118-49-118 49-49 118v100h34v33h-101v-33h34v-100q0-83 58.5-141.5t141.5-58.5 141.5 58.5 58.5 141.5v100h33v33h-100v-33z" />
<glyph unicode="&#xe645;" glyph-name="home" horiz-adv-x="1284" d="M1100 334l-435 407-435-406q-6-6-6.5-14.5t5.5-15 15-7 15 5.5l406 379 407-380q6-6 14-6 9 0 15 7 6 6 6 15t-7 15zM967.5 325q-8.5 0-15-6t-6.5-15v-323h-168v225h-225v-225h-169v323q0 9-6 15t-15 6-15-6-6-15v-365h253v225h140v-225h253v365q1 9-5.5 15t-15 6zM820 628h127v-113q0-9 6-15t14.5-6 15 6 6.5 15v155h-169q-9 0-15-6.5t-6-15 6-14.5 15-6z" />
<glyph unicode="&#xe646;" glyph-name="reduce-rectangle" horiz-adv-x="1111" d="M138 800v-832h831v832h-831zM803 334h-499v100h499v-100z" />
<glyph unicode="&#xe647;" glyph-name="add-rectangle" horiz-adv-x="1111" d="M138 800v-832h831v832h-831zM803 334h-200v-199h-99v199h-200v100h200v199h99v-199h200v-100z" />
<glyph unicode="&#xe648;" glyph-name="uncovered" horiz-adv-x="1067" d="M742 486h140v140h-140v-140zM582 621h57v57h-57v-57zM742 365h-121v119h-120v119h-359v-479h719v121h-119v120z" />
<glyph unicode="&#xe649;" glyph-name="safe" d="M514-1q-4 0-7 2-73 31-148 84-65 45-103 91-49 60-49 117v355q0 7 5.5 12.5t13.5 5.5q50 0 110 13 115 23 153 79 5 8 15 8t16-8q31-47 142-74 72-17 109-17 7-1 12-6.5t5-12.5v-352q0-49-37-103-4-6-11.5-7.5t-14 3-8 12 3.5 14.5q30 44 30 81v335q-51 5-97 16-104 25-150 71-24-26-61-44t-76.5-27-67.5-13-54-5v-336q0-83 136-177 60-43 132-77 102 60 168 127 5 6 13 6t13.5-5.5 5.5-13-5-13.5q-35-35-82-70.5t-69-49-33-19.5q-5-2-10-2v0zM462 242q-7 0-12 4l-114 100q-6 5-6.5 12.5t4.5 13.5 13 6.5 14-4.5l100-88 204 217q5 6 13 6t13.5-5 6-13-5.5-13l-216-230q-5-6-14-6z" />
<glyph unicode="&#xe64a;" glyph-name="lock" d="M622 483q0 41-28 70.5t-68 29.5-68.5-29.5-28.5-70.5v-21h193v21zM655 445h-275q-10 0-17.5-7t-7.5-17v-197q0-17 12-29.5t29-12.5h260q16 0 28 12.5t12 29.5v180q0 17-12 29t-29 12zM525.5 776q-106.5 0-197-53t-143-143.5-52.5-197 52.5-197 143-143 197-52.5 197.5 52.5 143.5 143 52.5 197-52.5 197-143.5 143.5-197.5 53zM713 224q0-24-17-41t-41-17h-259q-24 0-40.5 17t-16.5 41v197q0 17 12 29t29 12h33v21q0 48 33 82t79.5 34 80-34 33.5-82v-21h16q24 0 41-17t17-41v-180z" />
<glyph unicode="&#xe64b;" glyph-name="phone-ok" d="M387 197h294v371h-294v-371zM460 413q13 10 23-3l37-47 88 93q11 12 23 1t1-23l-101-108q-5-5-12-5h-1q-7 0-12 6l-49 63q-4 5-3 12t6 11zM387 165q0-16 3-26.5t8.5-14 9.5-4.5 9-1h234q5 0 9 1t9.5 4.5 8.5 14 3 26.5v15h-294v-15zM635 631h-218q-5 0-9-1t-9.5-5-8.5-14-3-26h294q0 20-13 33t-33 13zM525.5 776q-106.5 0-197-53t-143-143.5-52.5-197 52.5-197 143-143 197-52.5 197.5 52.5 143.5 143 52.5 197-52.5 197-143.5 143.5-197.5 53zM697 568v-403q0-62-46-62h-234q-47 0-47 62v420q0 62 47 62h218q26 0 44-17.5t18-44.5v-17z" />
<glyph unicode="&#xe64c;" glyph-name="phone1" d="M640 741h-256q-24 0-41-17t-17-41v-582q0-24 17-41t41-17h256q24 0 41 17t17 41v582q0 24-17 41t-41 17zM477 694h70q5 0 8-3.5t3-8-3-8-8-3.5h-70q-5 0-8.5 3.5t-3 8 3.5 8 8 3.5zM511.5 66q-14.5 0-24.5 10.5t-10 25 10.5 24.5 24.5 10 24.5-10 10.5-24.5-10.5-25-25-10.5zM677 159h-331v465h331v-465z" />
<glyph unicode="&#xe64d;" glyph-name="invalid" d="M226 333l17-68q4-14 18-11l116 29q8 2 12 7 4 8-3 46l17-1q7-43 2-54-6-9-19-13l-126-31q-26-6-32 21l-30 119 16 4 8-32 125 31-15 59-153-38-4 16 170 42 22-91zM454 488q-2-17-5-33l46 12-10 40 17 4 10-40 76 19 4-16-76-19 4-15q3-17 4-31l94 23 4-15-85-21q29-45 108-55l-6-16q-82 13-114 64-1-25-9-44-16-37-65-68l-13 12q50 31 64 65 5 16 6 34l-85-21-4 16 88 22q0 12-4 31l-4 15-54-14q-7-23-18-40l-17 9q23 34 27 84zM688 532l42 10 4-15-105-26-4 15 47 12q-8 10-17 20l16 7q9-12 17-23zM677 494q-6-35-20-63l-16 6q14 27 21 60zM707 425q4 18 5 37l16-3q-1-22-6-43 19-11 34-22l-8-16q-13 10-31 21-13-38-41-64l-13 12q27 25 39 61-17 11-35 19l7 14q16-6 33-16zM693 496l7 12q16-7 40-24l-8-14q-20 15-39 26zM763 480q-3-11-8-25l-13 9q14 44 7 110l17 1q1-18 2-37l64 16 4-16-20-5q12-54-1-99 28-26 59-36l-6-17q-31 11-58 37-14-35-44-63l-13 13q32 28 44 63-18 21-34 49zM766 504q17-33 37-55 8 38-2 81l-33-9q-2-16-2-17zM542-55q-18 0-36 2-31 4-59 11h-3q-7 2-12 3l-15 3q-5 2-15 4-11 3-14 4-35 9-60 17-25 9-57 29-25 15-52 40-22 21-43 49-37 49-60 116l-5 15q-1 3-3 10-1 4-2 6l-4 16q0 1-1 5-2 8-3 10-1 5-4 21-1 4-1 6l-1 2q-4 21-10 34v0q-19 133 44 255 30 60 73 106 15 16 23 23l11 10q4 4 13 10 27 20 54 32 13 6 41 17 3 1 8 3t7 3q16 7 47 18 2 0 4.5 1t4.5 2q1 0 3 1t4 1q14 5 21 7 2 0 5 1l9 3q4 1 15 3 5 1 7 1l7 1q10 1 14 2h9q15 1 20 1h3q54 0 107-14t96-38q39-21 77-56 36-34 58-62 46-56 71-118 17-40 24-86v-2q2-8 1-12-1-2-2-6-1-3-1-4v0q-1-3-1-6l1-2v-8q0-1 1-5 1-13 1-18 3-45-1-88-2-26-11-63 0-1-0.5-3t-0.5-3q-2-8-3-11l-6-18q-6-19-14-36-20-44-45-74-26-33-69-66l-27-18q-8-6-15-10l-11-8q-1-1-11-7-6-4-16-9-1-1-3-2l-4-2q-44-25-103-40l-20-4q-1 0-4-0.5t-4-0.5v0q-3-1-7.5-1.5t-6.5-0.5l-7-1h-6.5t-1.5-1h-23zM97 313q1-7 5-21 1-4 1-5 10-34 24-60 16-30 33-53 20-28 39-48 38-41 91-80 24-17 50-33 32-20 52-27 42-17 95-17 9 0 19 1h11q12 1 18 2h5l3.5 0.5t4.5 0.5q7 1 14 1l28 4q2 0 8 2 11 1 18 3 50 10 98 33 27 12 44 23 11 7 30 24l7 7q26 23 59 67 29 40 44 67 36 62 50 122 10 44 9 86 0 8-1 18v5l-1 8v2q-1 2-2 5v0q-1 1-1.5 2t-0.5 2q-2 2-4 5-1 3-3 11v2q-8 40-24 82-8 24-25 55t-41 60q-29 35-58 56-33 25-77 47-46 23-91 34-44 12-102 14h-27q-2 0-7-0.5t-6-0.5h-15q-17-1-27-3-8 0-22-2-3-1-6-1-61-10-106-46-16-11-47-36-19-15-45-40-19-20-39-46-16-21-33-52-60-112-49-243v-1q-4-15 0-34v-2zM203 474v0q-2 1-2 3l2 8q2 11 5 22 4 15 12 33 4 11 9 20 3 5 10 14 0 1 1.5 3t1.5 3l3 4q18 26 29 39v0q10 10 22 21v0l2 2q15 11 22 17v0l4 4q13 11 20 17 4 2 13 7l2 1q7 4 14 7t19 7q8 3 12 5h1l1.5 0.5t2.5 0.5q9 2 11 3t4 1q8 3 11 5h1q6 2 11 3 13 3 21 5v0q3 0 10 2 17 2 23 2v0q5 0 13 0.5t15 0.5h11q18-1 26-3v0q10-3 15-4 4-1 8-1 3 0 7-1 19-3 29-6v0q34-12 49-21 8-4 11-6t8-5l2-2 18-12q18-13 28-21 6-5 15-15l1-1q4-3 5-8v-2h-2q-4 1-8 5t-16 15q-15 13-27 21-10 7-18 12l-10 5q-2 0-11 5l-11 5-6 3-7 3q-20 7-25 9l-27 9q-12 4-29 5h-11q-3 0-5 1h-10t-6 1h-31q-7-1-20-2-7-1-12-2-8-1-21-4-7-1-12-2v0 0h-1q-4 0-10-2-1-1-2.5-1.5l-1.5-0.5q-10-3-15-6l-29-15q-8-5-23-13-3-2-5-3l-15-9q-8-4-11-7-9-6-22-20-10-11-20-21-5-5-11-13-2-2-7-8-7-8-14-21 0-1-1.5-3t-1.5-3q-6-11-8-15l-2-4q-5-8-8-14l-14-32q-5-13-7-21l-3-7q0-2-2-2v0zM516 67v0h-17q-3 1-6 1h-11q-4 1-15 4h-2l-9 3q-1 0-3 0.5t-3 0.5q-7 2-16 4-4 1-6 1-7 1-9 2-5 2-12 4l-1 0.5t-2 0.5l-3 1q-2 1-5.5 2.5t-5.5 1.5q-2 1-9 5l-1.5 1t-2.5 1q-1 1-4 2t-4 2q-11 5-16 9-12 7-31 22-3 3-8 7-17 14-28 25-6 6-15 16l-1 1q-4 5-4 9-1 1 0 1.5t2 0.5q4-1 8-6 6-7 16-17 14-15 26-25 12-9 40-26l5-3 6-3 13-6 1-1q2-1 3-1l8-4q5-2 11-4l3-1q0-1 1-1t2-1q7-2 11-4 5-2 8-3l6-3q7-2 15-4 4-1 12-2h5q9-1 15-2 2 0 6-0.5t5-0.5h6l16-2 17 1h17q3 1 8.5 1.5t8.5 0.5q9 1 25 4 1 0 4.5 1t4.5 1h1q18 2 52 19 8 5 11 6 16 10 29 17 5 3 16 9 7 4 12 8 13 9 24 21 7 9 20 23l18 22q8 10 15 22l11 22v1q8 15 10 20 7 16 14 33 4 15 7 23 0 2 1 4t1 3v1q1 2 2.5 1.5t1.5-2.5q0-1-1-8-2-13-5-24-4-16-11-36-9-23-23-42-1-2-3-4-4-5-5-7 0-1-1-2.5l-1-1.5q-3-5-5-8-1 0-13-17l-5-7-22-22q-2-1-8-6-5-3-5-4-6-4-13-10l-2-3q-15-13-24-19-6-3-15-8l-2-2q-9-4-13-6l-4-2q-18-7-29-10-7-2-17-4l-9-3q-1 0-1-1h-2q-1 0-1-1v0q-3-1-4-1-2-1-5-1.5t-4-1.5q-16-4-25-5l-18-2q-3 0-11-1h-24zM469 76q9-3 14-3 3-1 10-1 4 0 6-1h40q8 1 11 1h-17l-17-1-17 2h-6l-4 0.5t-6 0.5v0q-5 1-14 2zM335 130q11-9 20-14 5-3 15-8 4-2 9-4 0-1 1-1 2-1 3-2 7-3 8-4 6-2 11-4 2 0 3-1 1 0 2-0.5t2-0.5q8-3 11-4t7-2q-5 2-7 3v0q-3 1-11 5h-1t-2 1l-3 1q-8 3-10 4-3 1-9 4-1 1-2 1.5t-2 0.5l-13 7-6 3-5 3q-12 6-21 12zM716 134q-1 0-2.5-1t-2.5-1l-15-9v-1q-12-6-29-16h-1q-3-2-11-6-3-2-4-3 1 1 13 5l3 2q3 1 13 6l3 1q8 5 14 9 9 6 19 14zM836 304q-6-17-13-32-4-9-9-20v0q-7-14-12-22-7-13-15-23l-18-23q-14-14-21-22 0-1-1-1.5t-1-1.5l2 2q14 12 22 22l5 6q7 9 13 17 2 3 5 8 1 3 2 4 2 3 6 8 1 2 2 3 14 19 23 42 6 16 10 33z" />
<glyph unicode="&#xe65b;" glyph-name="sold" d="M549 363q61 15 101 65.5t40 115.5q0 76-54 131t-130 55-130-55-54-131q0-66 41.5-117t103.5-65q-46-6-93.5-23.5t-92-45.5-72-71-27.5-94v-11q0-33 23-56t56-23h502q33 0 56 23t23 56v11q0 51-29 94.5t-74.5 72-94.5 46-95 22.5z" />
<glyph unicode="&#xe65c;" glyph-name="couple-seat" d="M476 290q-5-2-33-21-35-23-62-53t-30-42q-2-13-18-13-12 0-17 13-5 14-31.5 42.5t-61.5 51.5q-3 2-12 7.5t-14 7.5q-27 16-43 27.5t-37.5 31.5-31.5 45-10 56q0 77 41 120t96 43q52 0 94-38 3-2 8.5-5.5t20-4.5 26.5 10q39 37 92 37 58 0 95-41 42-44 42-119 1-25-6.5-46.5t-17-35.5-28.5-30-29.5-23-32.5-20zM907 564q-39 41-95 41-52 0-92-36-12-12-26-12t-22 6l-7 6q-42 38-94 38h-13q17-13 24-23 50-54 50-139 0-91-88-154 1 0 5-2.5t6-3.5q11-7 26-16 35-22 61-51t31-42q3-13 18-13 12 0 18 13 2 11 29 40.5t63 54.5q2 1 13.5 8.5t18.5 12.5q27 16 41.5 26.5t35 30 30 44 9.5 54.5q-2 74-42 117z" />
<glyph unicode="&#xe65f;" glyph-name="selected" d="M400 262q-10-11-20 0l-161 166q-6 7-15 6.5t-15-6.5l-56-65q-6-6-5.5-15.5t6.5-16.5l236-241q8-9 20-9t20 9l480 492q6 7 6.5 16.5t-5.5 16.5l-50 65q-6 7-14.5 7.5t-14.5-6.5z" />
<glyph unicode="&#xe660;" glyph-name="mall-filled" d="M698 620q-1 1-3 1h-366q-2 0-3-1-2-2-3-5l-1-1-65-131q1-38 25.5-64.5t58.5-26.5q24 0 44 14t31 38l1 1q1 2 1.5 2.5t2.5 1.5l1 1h1l2 1h4l3-1 0.5-0.5t1-0.5h0.5q1-1 2-1 1-1 1-3l1-1q11-24 31-38t44-14 44 13.5 31 36.5v1l2 2t2 1l1 1h0.5t0.5 1h6q3 0 3-0.5t0.5-0.5h0.5l1-1 2-1 1-2 1-1q11-23 31-36.5t43-13.5q34 0 58.5 26.5t25.5 64.5l-65 132q-3 4-4 5zM682 542h-340q-5 0-8.5 3.5t-3.5 8.5 3.5 8.5 8.5 3.5h340q5 0 8.5-3.5t3.5-8.5-3.5-8.5-8.5-3.5zM512 831q-91 0-174-35.5t-142.5-95-95-142.5-35.5-174 35.5-174 95-142.5 142.5-95 174-35.5 174 35.5 142.5 95 95 142.5 35.5 174-35.5 174-95 142.5-142.5 95-174 35.5zM736 159q0-14-10-23-9-10-23-10h-382q-14 0-23 10-10 9-10 23v164q0 5 3.5 8.5t8.5 3.5 8.5-3.5 3.5-8.5v-164q0-4 3-7 2-2 6-2h382q3 0 6 2 3 3 3 7v164q0 5 3.5 8.5t8 3.5 8.5-3.5 4-8.5v-164zM791 486q0-49-31.5-83.5t-76.5-34.5q-52 0-85 45-32-45-85-45t-86 47q-32-47-86-47-45 0-76.5 34.5t-31.5 83.5v2l67 136q4 9 11 15 8 6 18 6h366q10 0 18-6t11-15l67-136v-2z" />
<glyph unicode="&#xe66c;" glyph-name="show-filled" d="M633 609q-51-1-86-35-31-31-34-74l133-134q44 4 74 35 36 35 35.5 85.5t-36 86-86.5 36.5zM304 218l61-61 257 207-112 111zM417 270l-14 15 93 92 14-14zM286 152l14-15 29 18-25 25zM512 831q-91 0-173.5-35.5t-142.5-95.5-95.5-142.5-35.5-173.5 35.5-173.5 95.5-142.5 142.5-95.5 173.5-35.5 173.5 35.5 142.5 95.5 95.5 142.5 35.5 173.5-35.5 173.5-95.5 142.5-142.5 95.5-173.5 35.5zM734 388q-38-38-91-41h-5l-9-1-265-214-14 14-52-32-35 35 32 52-16 16 214 266 1 9v4q2 54 41 91 39 40 99 41 58 0 99-42 41-41 41-99.5t-40-98.5z" />
<glyph unicode="&#xe66d;" glyph-name="dropup" d="M218 147l294 295 294-295 90 90-384 384-384-384z" />
</font>
</defs>
</svg>
